<svg viewBox="0 0 184 184" fill="none" xmlns="http://www.w3.org/2000/svg">
<path fill-rule="evenodd" clip-rule="evenodd" d="M91.9999 147.709C122.767 147.709 147.709 122.767 147.709 91.9999C147.709 61.2325 122.767 36.2905 91.9999 36.2905C61.2325 36.2905 36.2905 61.2325 36.2905 91.9999C36.2905 122.767 61.2325 147.709 91.9999 147.709ZM60.7579 123.561C69.0861 131.889 80.3815 136.568 92.1594 136.568V92.1594L92.1594 47.7511C80.3815 47.7511 69.0861 52.4298 60.7579 60.7579C52.4298 69.0861 47.7511 80.3815 47.7511 92.1594C47.7511 103.937 52.4298 115.233 60.7579 123.561Z" fill="white"/>
<rect x="87.8613" width="8.59516" height="26.1038" rx="4.29758" fill="white"/>
<rect x="87.8613" y="157.896" width="8.59516" height="26.1038" rx="4.29758" fill="white"/>
<rect x="154.023" y="23.915" width="8.59516" height="26.1038" rx="4.29758" transform="rotate(45 154.023 23.915)" fill="white"/>
<rect x="42.3735" y="135.565" width="8.59516" height="26.1038" rx="4.29758" transform="rotate(45 42.3735 135.565)" fill="white"/>
<rect x="23.915" y="29.5046" width="8.59516" height="26.1038" rx="4.29758" transform="rotate(-45 23.915 29.5046)" fill="white"/>
<rect x="135.565" y="141.154" width="8.59516" height="26.1038" rx="4.29758" transform="rotate(-45 135.565 141.154)" fill="white"/>
<rect y="95.9585" width="8.59516" height="26.1038" rx="4.29758" transform="rotate(-90 0 95.9585)" fill="white"/>
<rect x="157.896" y="95.9585" width="8.59516" height="26.1038" rx="4.29758" transform="rotate(-90 157.896 95.9585)" fill="white"/>
</svg>
