<svg viewBox="0 0 199 158" fill="none" xmlns="http://www.w3.org/2000/svg">
<rect x="72.6724" y="149.632" width="53.4837" height="8.16545" rx="4.08272" fill="#121116"/>
<rect x="155.552" y="76.3813" width="43.0727" height="8.16545" rx="4.08272" transform="rotate(-20 155.552 76.3813)" fill="#121116"/>
<rect x="139.425" y="56.4697" width="43.0727" height="8.16545" rx="4.08272" transform="rotate(-40 139.425 56.4697)" fill="#121116"/>
<rect x="119.216" y="45.4673" width="43.0727" height="8.16545" rx="4.08272" transform="rotate(-60 119.216 45.4673)" fill="#121116"/>
<rect x="2.79297" y="61.6492" width="43.0727" height="8.16545" rx="4.08272" transform="rotate(20 2.79297 61.6492)" fill="#121116"/>
<rect x="26.479" y="28.7832" width="43.0727" height="8.16545" rx="4.08272" transform="rotate(40 26.479 28.7832)" fill="#121116"/>
<rect x="58.1055" y="8.16577" width="43.0727" height="8.16545" rx="4.08272" transform="rotate(60 58.1055 8.16577)" fill="#121116"/>
<rect x="95.332" y="43.0728" width="43.0727" height="8.16545" rx="4.08272" transform="rotate(-90 95.332 43.0728)" fill="#121116"/>
<rect x="7.34863" y="94.9236" width="183.927" height="8.16545" rx="4.08272" fill="#121116"/>
<rect x="37.3569" y="122.277" width="123.911" height="8.16545" rx="4.08272" fill="#121116"/>
<path fill-rule="evenodd" clip-rule="evenodd" d="M141.498 94.9233C139.882 86.5929 135.814 78.8634 129.727 72.7761C121.688 64.7366 110.784 60.2201 99.4144 60.2201C88.045 60.2201 77.1412 64.7366 69.1017 72.7761C63.0144 78.8633 58.9469 86.5929 57.3305 94.9233L141.498 94.9233ZM149.791 94.9233C148.088 84.4147 143.125 74.6265 135.501 67.0022C125.93 57.4315 112.949 52.0547 99.4144 52.0547C85.8794 52.0547 72.8986 57.4315 63.3279 67.0022C55.7037 74.6265 50.7409 84.4147 49.0376 94.9233C48.6028 97.6062 48.3804 100.336 48.3804 103.089L150.448 103.089C150.448 100.336 150.226 97.6062 149.791 94.9233Z" fill="#121116"/>
</svg>
