<svg viewBox="0 0 351 300" fill="none" xmlns="http://www.w3.org/2000/svg">
<path fill-rule="evenodd" clip-rule="evenodd" d="M229.159 0.000149865C223.703 -0.00773485 218.231 0.295459 212.77 0.920391C194.286 3.03575 175.936 8.83753 158.801 18.7393C110.951 46.3984 85.6082 97.8791 88.8927 149.533C100.233 149.913 110.985 153.958 119.629 161.15C127.823 156.586 136.847 154.269 146.286 154.269C171.421 154.269 193.133 171.211 199.944 194.825C217.681 200.287 230.162 216.606 230.162 235.829C230.162 247.864 225.173 258.708 217.166 266.493C211.808 271.703 205.099 275.544 197.628 277.456C205.583 279.291 213.701 280.444 221.886 280.887C248.098 282.305 274.998 276.435 299.448 262.313C316.586 252.409 330.797 239.414 341.875 224.457C345.145 220.042 348.141 215.456 350.86 210.729C345.551 210.721 340.258 210.415 335.009 209.816C292.227 204.934 252.279 180.635 229.09 140.509C205.905 100.389 204.849 53.634 222.013 14.1865C224.122 9.33873 226.507 4.60132 229.159 0.000149865ZM165.808 30.86C178.681 23.4207 192.318 18.5514 206.166 16.0399ZM206.166 16.0399C190.528 57.7435 192.902 105.869 216.969 147.514C241.038 189.163 281.518 215.285 325.484 222.611C316.38 233.356 305.333 242.742 292.446 250.19C274.222 260.716 254.489 266.153 234.83 266.982C240.718 258.058 244.162 247.373 244.162 235.829C244.162 212.961 230.789 193.147 211.031 184.099C200.576 158.256 175.314 140.269 146.286 140.269C137.57 140.269 129.08 141.859 121.081 145.009C115.363 141.504 109.149 138.931 102.65 137.352C103.734 94.7174 126.235 53.7347 165.806 30.8608" fill="#121116"/>
<path fill-rule="evenodd" clip-rule="evenodd" d="M197.251 263.121C195.08 263.121 193.017 262.87 190.99 262.474C184.368 276.338 170.255 286 153.79 286C142.608 286 132.512 281.51 125.058 274.363C118.508 278.637 110.728 281.151 102.332 281.151C88.5813 281.151 76.5311 274.435 69.0042 264.198C64.6979 265.743 60.1022 266.713 55.2531 266.713C32.4915 266.713 14 248.359 14 225.767C14 204.074 30.9717 186.546 52.3944 185.038C56.5197 166.72 72.9124 153 92.6343 153C105.277 153 116.461 158.726 124.028 167.627C124.367 168.025 124.698 168.429 125.022 168.839C125.497 168.45 125.979 168.069 126.469 167.698C134.293 161.758 143.925 158.1 154.55 158.1C178.144 158.1 197.396 175.699 200.29 198.363C216.9 199.907 230 213.664 230 230.58C230 248.539 215.308 263.085 197.251 263.121ZM212.03 186.608C230.467 192.72 244 209.907 244 230.58C244 255.968 223.606 276.401 198.517 277.102C188.529 290.907 172.288 300 153.79 300C142.557 300 132.169 296.618 123.507 290.945C116.993 293.642 109.847 295.151 102.332 295.151C87.4782 295.151 74.1281 289.294 64.2644 279.914C61.3847 280.422 58.3767 280.713 55.2531 280.713C24.8586 280.713 0 256.19 0 225.767C0 199.873 17.9006 178.585 41.7474 172.609C50.131 152.858 69.7184 139 92.6343 139C105.649 139 117.478 143.524 126.821 150.943C135.046 146.639 144.431 144.1 154.55 144.1C181.758 144.1 204.513 162.053 212.03 186.608Z" fill="#121116"/>
<path d="M305.289 157.969L310.924 145.591L324.27 143.24L314.278 134.044L316.145 120.594L304.321 127.302L292.116 121.355L294.847 134.7L285.409 144.45L298.893 146.006L305.289 157.969Z" fill="#121116"/>
<path d="M35.4385 124.743L45.0501 119.799L54.5579 124.916L52.8292 114.232L60.6084 106.764L49.9596 105.139L45.2575 95.4241L40.3826 105.07L29.6992 106.488L37.3746 114.094L35.4385 124.743Z" fill="#121116"/>
<path d="M253.635 100.679L257.991 108.873L261.864 100.368L271.026 98.7779L264.145 92.4854L265.425 83.2542L257.334 87.8525L248.967 83.7728L250.834 92.9003L244.369 99.6076L253.635 100.679Z" fill="#121116"/>
<path d="M297.751 76.3049L300.448 81.3182L302.834 76.1321L308.435 75.1294L304.217 71.2571L305.012 65.6216L300.033 68.4566L294.916 65.9327L296.057 71.5337L292.081 75.648L297.751 76.3049Z" fill="#121116"/>
<path d="M95.1135 42.3881L97.8103 47.4013L100.161 42.2152L105.797 41.178L101.579 37.3403L102.374 31.6702L97.3954 34.5052L92.2784 32.0159L93.3848 37.5823L89.4434 41.6966L95.1135 42.3881Z" fill="#121116"/>
</svg>
