<svg viewBox="0 0 203 174" fill="none" xmlns="http://www.w3.org/2000/svg">
<path d="M129.997 84.1387C114.407 57.1621 115.525 25.1754 130.038 8.97416e-05C115.711 -0.0206136 101.198 3.54037 87.9067 11.2213C59.2532 27.784 44.0776 58.6114 46.0445 89.5423C52.8352 89.77 59.2739 92.1923 64.4498 96.4986C69.3565 93.7657 74.7601 92.3786 80.4121 92.3786C95.4634 92.3786 108.465 102.523 112.544 116.664C123.165 119.935 130.638 129.707 130.638 141.218C130.638 153.247 122.316 163.288 111.157 166.145C131.177 170.762 152.915 168.174 172.128 157.077C185.42 149.396 195.771 138.609 202.914 126.187C173.826 126.146 145.586 111.115 129.997 84.1387Z" fill="white"/>
<path d="M123.579 141.197C123.579 131.446 116.084 123.517 106.581 122.626C104.925 109.563 93.9106 99.4179 80.412 99.4179C73.9525 99.4179 68.1349 101.799 63.518 105.608C59.191 100.08 52.5452 96.478 44.9885 96.478C33.7051 96.478 24.3265 104.387 21.9663 114.945C9.70989 115.815 0 125.918 0 138.423C0 151.446 10.5794 162.025 23.6019 162.025C26.3761 162.025 29.0054 161.466 31.4692 160.576C35.7755 166.476 42.6697 170.348 50.537 170.348C55.3402 170.348 59.7914 168.898 63.5387 166.435C67.8036 170.555 73.5798 173.143 79.9772 173.143C89.3972 173.143 97.4716 167.573 101.26 159.582C102.42 159.81 103.6 159.955 104.842 159.955C115.173 159.934 123.579 151.549 123.579 141.197Z" fill="white"/>
<path d="M175.027 94.594L178.401 87.1822L186.393 85.7743L180.409 80.2672L181.527 72.2136L174.447 76.2301L167.139 72.6691L168.774 80.6606L163.122 86.499L171.196 87.4306L175.027 94.594Z" fill="white"/>
<path d="M13.4363 74.6978L19.1918 71.7372L24.8852 74.8014L23.8501 68.404L28.5083 63.9321L22.1317 62.959L19.316 57.1414L16.3969 62.9176L9.99951 63.7664L14.5957 68.3212L13.4363 74.6978Z" fill="white"/>
<path d="M144.095 60.2883L146.704 65.195L149.023 60.1019L154.509 59.1496L150.389 55.3816L151.155 49.8538L146.311 52.6073L141.3 50.1643L142.418 55.63L138.547 59.6465L144.095 60.2883Z" fill="white"/>
<path d="M170.513 45.6925L172.128 48.6945L173.556 45.589L176.91 44.9886L174.385 42.6698L174.861 39.2952L171.879 40.9928L168.815 39.4815L169.499 42.8354L167.118 45.2991L170.513 45.6925Z" fill="white"/>
<path d="M49.1707 25.3826L50.7856 28.3846L52.1934 25.2791L55.5681 24.658L53.0423 22.36L53.5185 18.9646L50.5372 20.6623L47.4731 19.1716L48.1356 22.5049L45.7754 24.9686L49.1707 25.3826Z" fill="white"/>
</svg>
