<svg viewBox="0 0 323 323" fill="none" xmlns="http://www.w3.org/2000/svg">
<path d="M149.312 0.387909C109.971 3.41446 74.9171 19.5561 47.1129 47.2946C21.3888 73.0844 6.31847 103.6 1.0869 140.671C-0.362299 150.947 -0.362299 171.373 1.0869 181.653C6.31847 218.789 21.3264 249.052 47.1753 274.963C72.7712 300.625 104.361 316.198 140.801 321.051C157.383 323.256 179.01 322.251 196.285 318.403C251.134 306.172 296.214 265.377 313.867 211.977C323.009 184.488 324.524 154.226 318.218 125.854C306.049 71.1291 264.88 25.6716 211.73 8.27139C192.121 1.84036 168.73 -1.12372 149.312 0.387909ZM157.695 7.32498C157.82 7.70291 158.517 7.95593 159.21 7.95593C160.282 7.95593 160.282 8.08081 159.526 8.83994C159.086 9.34598 157.949 9.84879 157.13 9.97366C156.312 10.0985 155.681 10.4797 155.743 10.92C155.806 11.2979 154.544 11.9913 152.908 12.435L150.006 13.2532L151.833 14.0091C154.038 14.9555 157.002 15.1428 157.318 14.3245C157.442 14.009 159.588 13.9466 162.549 14.2621C169.802 15.0179 178.753 19.3063 173.14 19.3063C171.754 19.3063 171.563 19.4312 172.322 19.9373C172.828 20.2527 174.908 20.5682 176.989 20.5682C180.206 20.5682 180.584 20.6931 179.89 21.5146C179.45 22.0174 178.126 22.4611 176.926 22.4611H174.721L176.17 23.6605L177.619 24.7942L174.343 25.8031C169.992 27.0649 161.544 32.2965 161.984 33.496C162.237 34.0645 161.921 34.3142 161.166 34.3142C160.535 34.2518 158.961 34.7546 157.636 35.3855C155.809 36.2038 155.05 36.3319 154.485 35.7634C154.107 35.3855 153.476 35.0701 153.098 35.0701C152.783 35.0701 152.845 35.3231 153.351 35.6385C153.982 36.0789 154.045 36.4568 153.476 37.5314C152.467 39.3585 151.649 39.1712 151.333 37.0911C151.143 35.6419 151.08 35.7043 150.956 37.6595C150.831 40.9391 148.369 43.0193 148.369 39.8022C148.369 37.975 147.991 37.8468 146.73 39.1087C146.161 39.6772 146.099 40.18 146.477 40.433C146.792 40.6237 147.107 41.1889 147.107 41.6949C147.107 42.8287 142.569 43.2723 138.468 42.4508C135.82 41.9447 134.37 42.0729 131.344 42.8911C128.695 43.6469 126.49 43.8375 124.219 43.5845C121.193 43.2066 120.437 43.3939 113.5 46.6735C106.878 49.7625 102.846 51.2741 105.429 49.6376C106.06 49.2597 106.185 48.3757 105.935 46.8017C105.495 44.0281 106.819 42.2634 112.997 37.3441C116.402 34.633 117.851 33.8772 121.255 33.2462C126.299 32.2374 131.784 29.6512 127.118 30.5352C124.722 30.9131 125.984 29.5887 128.695 28.8329C130.335 28.3268 130.838 28.455 131.281 29.2733C131.787 30.1573 132.037 30.2197 132.668 29.5263C133.108 29.1484 133.299 28.7705 133.046 28.7705C132.793 28.7705 133.108 28.2677 133.739 27.6368C134.308 27.0683 136.513 26.0594 138.593 25.366C143.131 23.9792 148.366 21.393 148.366 20.6372C148.366 20.3217 147.988 19.9438 147.61 19.7533C145.405 18.9974 148.494 18.5538 155.934 18.5538C164.192 18.6162 166.463 18.1759 160.6 17.7355C151.711 17.0421 149.063 16.6018 149.188 15.9709C149.25 15.5305 148.432 15.2151 147.17 15.2151C144.521 15.2151 143.89 13.8907 146.099 12.9443C146.983 12.504 147.548 11.9979 147.423 11.7449C147.107 11.2421 151.836 10.2332 153.348 10.4205C153.854 10.483 153.979 10.2957 153.726 9.85205C153.473 9.40842 153.663 8.8432 154.104 8.52774C154.735 8.14984 154.606 7.9592 153.598 7.9592C152.02 7.9592 151.642 7.01279 152.967 6.44757C154.041 6.00064 157.446 6.63162 157.695 7.32498ZM151.202 7.32498C151.393 7.70291 150.887 7.95593 150.003 7.95593C149.119 7.95593 148.238 8.20898 148.047 8.58688C147.857 8.90234 146.154 9.2178 144.39 9.28024C141.426 9.34268 141.301 9.40512 143.19 9.84872C145.586 10.4172 146.532 11.1107 144.955 11.1107C144.387 11.1107 144.009 11.3637 144.199 11.6791C144.39 11.9322 141.613 12.3725 138.084 12.4974C134.173 12.7504 130.203 13.3814 127.87 14.1372C125.79 14.8306 123.519 15.5864 122.826 15.777C122.133 15.9676 122.888 15.9676 124.591 15.777C126.484 15.5864 127.555 15.7145 127.555 16.0924C127.555 16.4703 127.177 16.7858 126.799 16.8483C126.359 16.8483 126.546 17.1638 127.239 17.4792C128.186 17.9196 127.995 17.9853 126.484 17.6698C125.35 17.4792 124.403 17.545 124.403 17.8604C124.403 18.5538 116.461 18.4289 114.377 17.7355C113.306 17.3576 112.991 17.4201 113.306 17.9261C113.684 18.4947 109.586 21.2057 108.324 21.2057C107.44 21.2057 108.515 19.5035 109.902 18.8726C112.991 17.3609 104.164 17.8637 100.759 19.3786C95.9058 21.5212 90.7334 24.7383 87.4571 27.6992C84.6211 30.2197 83.4217 31.0412 78.568 33.6899C76.4254 34.8893 77.1812 35.3921 79.452 34.2584C80.3984 33.7556 82.3504 32.9965 83.7404 32.5562C85.1272 32.1782 89.1001 30.4135 92.567 28.7113C96.0339 27.0715 100.069 25.4942 101.584 25.2444C104.295 24.8041 104.295 24.8041 103.855 26.5688L103.415 28.271L105.748 26.756C107.259 25.8096 107.956 24.929 107.766 24.2356C107.45 22.7864 109.277 22.2803 111.548 23.1018C112.935 23.6703 114.134 23.5422 116.97 22.724C119.178 22.0306 120.312 21.3996 119.868 21.1466C119.3 20.7687 119.428 20.5156 120.246 20.2001C120.94 19.9471 121.571 20.0753 121.949 20.6405C122.389 21.3339 122.517 21.3339 122.517 20.7029C122.517 20.2626 122.77 20.0096 123.148 20.2626C123.464 20.4532 124.219 20.325 124.85 20.0096C125.481 19.6941 126.49 19.2538 127.121 19.0631C127.69 18.8726 128.508 17.9919 128.823 17.1079C129.642 14.9029 133.93 13.01 138.218 13.01C140.805 13.01 141.498 13.2007 141.245 13.894C141.054 14.3344 141.183 15.0278 141.56 15.4057C142.694 16.5427 140.361 17.1079 138.596 16.1615C137.778 15.7211 136.769 15.593 136.326 15.9084C135.757 16.2239 135.823 16.477 136.766 16.8549C137.775 17.2328 137.459 17.4858 135.064 18.5571C133.424 19.2505 131.912 20.1344 131.722 20.5123C131.469 20.8902 129.326 21.7742 126.868 22.5301C122.895 23.7262 120.628 25.366 119.868 27.5743C119.615 28.3926 113.69 29.1517 113.69 28.4583C113.69 28.2053 114.193 27.5743 114.824 27.1339C117.282 25.2411 114.321 26.4406 111.42 28.4583C108.456 30.5385 108.331 30.6009 108.015 29.3423C107.7 28.0804 107.637 28.0804 106.188 29.6577C104.361 31.613 103.602 31.7379 103.602 30.0357C103.602 29.3423 103.411 28.7738 103.162 28.7738C102.153 28.7738 99.1887 31.1069 99.6323 31.5473C99.8853 31.8003 99.6323 31.8003 99.1262 31.6097C98.1174 31.2318 94.7754 33.4368 94.7754 34.4457C94.7754 34.7612 95.6593 34.886 96.6682 34.6363C97.7395 34.4457 98.561 34.4457 98.561 34.6987C98.561 34.8893 96.4184 36.654 93.7698 38.6092C90.1747 41.2579 88.6631 42.832 87.7167 44.9154C87.0857 46.427 86.1393 47.6889 85.6365 47.6889C85.1338 47.6889 84.9432 48.1292 85.1338 48.9508C85.3868 49.9596 84.9432 50.4 83.1161 51.2216C80.0895 52.4834 77.4408 51.9149 74.5424 49.2663C72.7153 47.6265 71.8938 47.2485 70.4446 47.564L68.6175 47.9419L70.1949 48.3199C72.4656 48.8883 72.5905 50.653 70.3855 51.5995C67.7992 52.6707 66.4782 53.9951 66.8561 55.0039C67.3589 56.3907 63.8296 59.6703 61.8743 59.6703C59.4163 59.6703 59.6036 57.9056 62.1273 57.0216L64.2075 56.2658L62.4428 55.8254C61.3715 55.51 59.4163 55.7006 57.3985 56.2658C55.5714 56.7686 53.4256 57.3995 52.5449 57.5901C51.6609 57.7807 50.3399 58.4084 49.5808 58.9144C48.7625 59.4205 48.1316 59.6078 48.1316 59.4205C48.1316 58.3492 43.1498 63.7714 42.7718 65.2206L42.2691 66.9228L41.7006 64.8427C41.1321 62.825 41.3227 62.5719 47.2476 56.2033C57.0206 45.6745 66.7937 37.4788 78.7093 29.9765C92.3272 21.4029 111.811 13.4569 125.994 10.621C136.901 8.47842 143.522 7.3414 146.799 7.15411C148.563 7.02924 150.141 6.90109 150.394 6.83865C150.637 6.7565 151.015 6.94708 151.202 7.32498ZM165.388 9.84546C165.388 11.3604 164.882 11.6726 161.162 12.1162C158.642 12.4941 158.264 12.3692 158.957 11.6759C159.398 11.1731 160.66 10.92 161.921 11.0449C164.002 11.1698 164.886 10.3516 163.499 9.53C163.183 9.33942 162.868 9.46756 162.868 9.78302C162.868 10.1609 162.299 10.4764 161.606 10.4764C160.913 10.4764 160.344 10.1609 160.344 9.84546C160.344 9.46756 160.784 9.21454 161.291 9.21454C161.859 9.21454 162.046 8.83661 161.859 8.26813C161.544 7.5123 161.797 7.44986 163.436 8.01508C164.695 8.45871 165.388 9.1521 165.388 9.84546ZM157.824 12.3692C157.824 12.6847 157.699 13.0002 157.571 13.0002C157.38 13.0002 157.065 12.6847 156.877 12.3692C156.687 11.9913 156.815 11.7383 157.13 11.7383C157.508 11.7383 157.824 11.9913 157.824 12.3692ZM207.001 16.4046C207.001 17.351 206.686 17.4759 205.424 17.1604C203.784 16.7201 203.784 16.7826 204.855 18.3566C205.424 19.2406 206.117 19.934 206.433 19.934C206.748 19.934 207.001 20.2495 207.001 20.6273C207.001 21.0053 206.498 21.1959 205.93 21.0677C205.299 20.9428 204.858 20.4368 204.983 20.0589C205.171 18.8594 204.477 19.1749 203.219 20.6898L202.085 22.139L201.454 20.4992C200.005 16.7793 200.255 14.8864 202.272 14.8864C203.156 14.8864 203.85 14.6334 203.85 14.3179C203.85 14.0025 204.543 14.0649 205.427 14.4428C206.308 14.8897 207.001 15.7112 207.001 16.4046ZM228.249 25.3561C228.627 27.8142 229.196 28.6982 232.41 31.7872C235.374 34.6888 234.299 35.3822 230.645 32.9866C227.934 31.2844 224.97 25.1064 225.601 22.6483C225.916 21.1991 226.103 21.1367 226.925 21.955C227.428 22.4545 227.996 23.9694 228.249 25.3561ZM242.179 30.4004C243.944 31.9778 245.459 32.9866 245.459 32.543C245.459 32.0369 245.837 32.0369 246.721 32.543C247.414 32.9209 247.983 33.4894 247.983 33.8673C247.983 34.2452 247.73 34.3077 247.352 34.1204C245.774 33.174 246.911 34.4983 248.801 35.7602C250.125 36.769 250.503 36.8315 249.935 36.1381C246.152 31.4093 261.032 43.2 269.543 51.6487C281.649 63.755 291.61 77.6258 299.05 92.7553C304.409 103.725 307.183 111.227 309.832 122.009L311.912 130.333L309.516 137.079C306.614 145.087 305.356 155.363 306.996 157.634C308.129 159.336 308.129 162.678 306.933 163.687C305.609 164.758 305.106 163.181 305.546 159.714L305.924 157.065L304.915 159.146C303.654 161.604 302.773 161.479 302.014 158.577C301.698 157.378 301.258 156.119 300.943 155.804C299.996 154.607 296.592 140.608 296.529 137.519L296.467 135.627L295.583 137.707C294.765 139.534 294.511 139.724 293.312 139.093C292.428 138.591 292.113 137.96 292.303 137.076C292.556 136.129 291.988 135.374 289.845 133.862C288.33 132.791 287.072 131.719 287.072 131.466C287.072 131.276 285.872 131.657 284.423 132.347C282.974 133.103 280.072 133.799 278.054 133.924C274.65 134.177 274.144 134.049 273.138 132.728C272.067 131.279 272.067 131.279 269.921 132.413C267.903 133.484 267.65 133.546 265.698 132.538C264.565 131.907 263.05 130.457 262.356 129.258C261.032 126.987 259.52 125.854 257.818 125.854C256.116 125.854 256.684 128.689 259.018 131.591C260.217 133.103 261.226 134.743 261.226 135.249C261.226 135.88 261.413 135.942 262.11 135.374C262.803 134.805 263.056 134.933 263.372 136.129C263.94 138.587 267.092 138.272 269.362 135.498C271.127 133.356 271.19 133.356 271.633 134.68C271.886 135.498 273.148 136.507 274.722 137.201C278.127 138.65 278.567 139.787 276.993 143.316C276.3 144.894 275.731 146.53 275.731 146.911C275.731 147.795 269.425 153.595 268.482 153.595C268.104 153.595 266.842 154.604 265.708 155.8C262.232 159.52 250.694 164.818 248.61 163.684C247.477 163.053 246.718 160.47 246.718 157.315C246.718 155.488 243.691 150.444 241.736 149.057C240.034 147.861 239.15 145.778 239.15 143.004C239.15 141.239 238.709 140.168 237.572 139.093C236.688 138.275 235.995 137.266 235.995 136.888C235.995 136.448 235.364 135.627 234.671 134.933C233.915 134.302 233.093 133.04 232.778 132.222C232.272 131.023 231.894 130.835 230.573 131.151C229.373 131.466 228.68 131.276 227.986 130.457C226.725 128.818 229.373 134.177 231.266 136.951C232.15 138.213 232.843 139.787 232.843 140.418C232.843 141.111 233.412 142.182 234.105 142.876C235.808 144.578 236.626 146.786 236.185 148.489C235.932 149.435 236.376 150.316 237.7 151.515C238.772 152.524 239.78 154.226 239.971 155.488C240.349 157.19 241.295 158.39 244.131 160.72C247.095 163.115 247.914 164.187 248.104 165.764C248.295 167.591 248.545 167.782 250.562 167.969C251.762 168.094 254.976 167.463 257.687 166.52C260.398 165.639 262.731 164.942 262.856 164.942C263.802 164.942 262.731 168.475 260.46 173.013C257.371 179.191 253.776 183.417 249.047 186.569C247.283 187.831 244.634 189.973 243.247 191.422C241.861 192.871 239.527 194.889 238.078 195.898C236.567 196.969 235.367 198.041 235.367 198.419C235.367 198.734 234.736 199.868 233.98 200.877C232.972 202.326 232.784 202.894 233.349 203.588C233.918 204.219 233.918 204.974 233.412 206.424C232.906 207.939 232.972 208.694 233.665 209.828C234.483 211.09 234.483 211.721 233.727 214.619C232.212 220.419 230.448 222.122 224.27 223.637C222.568 224.077 220.11 225.086 218.785 225.907C216.892 227.107 216.452 227.672 216.768 228.681C217.021 229.437 217.021 230.952 216.83 232.085C216.39 234.228 215.634 234.734 210.652 235.805C209.456 236.058 208.887 236.623 208.887 237.445C208.887 239.022 205.923 241.227 199.745 244.191L194.701 246.587L186.19 246.462C181.523 246.4 176.795 246.147 175.661 245.956C173.39 245.578 172.381 243.814 173.896 242.742C174.777 242.049 174.714 241.733 173.456 239.591C172.7 238.204 171.438 236.502 170.62 235.746C169.358 234.55 169.171 233.728 169.171 229.884C169.171 227.488 168.98 225.47 168.73 225.47C168.162 225.47 166.65 222.381 166.65 221.247C166.65 220.807 166.335 220.429 166.019 220.429C165.01 220.429 164.192 217.781 164.57 215.829C164.761 214.945 166.397 212.615 168.29 210.722C171.507 207.505 171.632 207.189 171.001 205.362C170.561 204.163 170.561 203.091 170.939 202.398C171.823 200.821 169.49 194.833 166.778 191.491C165.454 190.042 163.942 187.959 163.374 187.016C162.365 185.251 162.365 185.123 164.13 181.846C166.147 178.189 166.525 175.606 165.139 174.469C164.383 173.776 161.544 173.27 158.267 173.207C157.511 173.145 156.752 172.261 156.125 170.621C155.306 168.541 154.675 167.972 152.783 167.469C151.458 167.092 149.441 166.839 148.307 166.901C142.569 167.154 134.436 166.332 132.987 165.324C132.04 164.755 130.085 164.315 128.196 164.315C123.973 164.315 123.214 163.812 119.053 158.64C116.533 155.488 115.271 153.155 114.578 150.759C114.137 148.804 113.066 145.906 112.245 144.266C109.787 139.412 109.658 137.017 111.867 134.306C113.822 131.847 114.768 129.136 115.334 124.595C115.711 122.009 116.089 121.506 119.494 118.92C124.663 115.075 127.69 113.245 128.951 113.245C129.582 113.245 131.222 112.804 132.609 112.236C134.564 111.417 135.258 110.786 135.698 109.084C136.454 106.311 138.662 104.48 141.245 104.418C142.632 104.418 144.018 103.725 145.596 102.4C147.614 100.636 147.991 100.507 148.622 101.391C149.822 103.031 153.792 103.787 159.089 103.347C162.746 103.094 165.96 103.347 171.76 104.418C176.045 105.174 180.396 106.12 181.343 106.498C182.858 107.004 182.982 107.254 182.227 108.138C181.721 108.706 181.471 109.525 181.596 109.965C181.786 110.405 181.405 111.352 180.774 112.108C179.578 113.369 179.64 113.369 181.468 114.881C182.476 115.699 184.116 116.521 184.997 116.708C185.943 116.899 187.77 118.032 189.095 119.104C194.077 123.33 199.561 124.526 199.939 121.562C200.255 119.229 202.841 118.598 205.992 120.113C212.108 123.139 216.081 124.086 223.139 124.401C231.02 124.779 230.704 124.904 232.597 119.672C233.228 118.032 233.165 112.61 232.535 112.61C232.472 112.61 231.148 113.051 229.699 113.557C227.24 114.441 226.8 114.441 225.538 113.557C224.339 112.801 223.774 112.738 222.449 113.366C221.187 113.935 220.685 113.869 219.738 113.051C219.107 112.42 218.289 111.979 217.911 111.979C216.902 111.979 215.075 108.828 215.453 107.819C215.64 107.313 215.391 106.935 214.947 106.935C213.623 106.935 214.444 104.664 216.018 103.846L217.405 103.153L216.018 103.468C215.262 103.659 214.507 103.531 214.254 103.153C213.748 102.334 209.715 102.334 209.209 103.153C208.956 103.531 208.578 103.656 208.263 103.468C207.063 102.712 208.578 106.117 210.028 107.251L211.542 108.575L209.022 109.709C207.573 110.34 205.995 110.717 205.489 110.527C204.418 110.087 204.103 108.194 205.049 108.194C205.365 108.194 204.796 107.31 203.787 106.238C202.778 105.167 201.645 103.021 201.267 101.51C200.636 99.114 200.005 98.2925 196.916 96.1499C194.961 94.7632 192.943 92.9328 192.503 92.1145C192.062 91.2963 191.431 90.7278 191.116 90.9184C190.8 91.1089 190.36 90.7278 190.169 89.9719C189.979 89.2161 189.601 88.6476 189.351 88.6476C188.405 88.6476 187.396 90.5404 187.711 91.6117C188.089 92.8112 191.306 96.1499 195.214 99.4295C197.8 101.572 198.24 102.834 196.285 102.331C195.338 102.078 195.023 102.331 195.023 103.278C195.023 105.105 193.889 106.935 192.943 106.557C192.437 106.367 192.187 105.548 192.374 104.415C192.627 102.459 192.059 101.704 186.89 97.6057C185.25 96.2814 184.116 94.7697 183.863 93.6327C183.295 90.731 182.223 90.2283 178.441 90.9841C176.486 91.362 174.721 91.4244 174.09 91.1089C172.388 90.225 171.441 90.4156 168.477 92.4333C166.966 93.4421 165.263 94.3261 164.695 94.3261C164.192 94.3261 162.74 95.335 161.544 96.5968C158.202 100.064 156.374 100.82 152.211 100.317C149.562 100.001 147.922 99.3079 145.717 97.6057C144.015 96.3438 142.691 94.8946 142.691 94.3261C142.691 93.7576 143.509 92.1835 144.584 90.7968C145.593 89.4724 146.601 87.3923 146.854 86.2586C147.548 82.7917 150.765 82.5387 156.69 85.5652C160.094 87.3299 162.112 87.1426 162.93 85.0591C163.749 82.9166 163.183 80.7083 161.228 78.1253C159.02 75.1612 159.21 74.6584 162.552 75.1612C164.57 75.4142 165.392 75.3518 165.392 74.7833C165.392 74.2805 165.957 74.1524 166.969 74.4054C168.04 74.6584 169.555 74.2805 171.698 73.2059C173.4 72.3252 175.355 71.6286 175.986 71.6286C176.68 71.6286 177.564 71.1882 178.004 70.6822C178.444 70.1794 179.2 69.7357 179.644 69.7357C180.147 69.7357 180.528 69.3578 180.528 68.9175C180.528 68.4147 180.653 68.349 181.034 68.8551C181.79 70.0512 184.313 70.5573 185.322 69.6733C185.825 69.233 186.206 68.1584 186.206 67.2777C185.953 63.9357 186.206 62.802 187.153 62.802C187.655 62.802 188.099 62.424 188.099 61.918C188.099 61.1622 189.864 59.9627 190.37 60.4031C190.748 60.8434 189.236 66.581 188.668 66.581C187.787 66.581 187.974 67.6523 189.108 68.7236C189.676 69.2921 190.873 69.7325 191.757 69.7949C192.703 69.7949 195.792 69.9198 198.628 70.0479C204.366 70.2385 204.996 69.9231 205.69 66.3904C206.068 64.6258 206.383 64.3727 208.148 64.3727C209.978 64.3727 210.166 64.2479 210.166 62.355C210.166 59.9594 210.481 59.7064 214.579 59.2036C217.481 58.8881 217.73 58.7633 216.85 57.8793C215.969 56.9953 215.463 56.9953 212.627 57.6887C210.294 58.3196 209.222 58.3196 208.72 57.8136C208.342 57.4357 208.214 57.1202 208.529 57.1202C208.782 57.1202 208.529 56.4893 208.023 55.7334C206.574 53.6533 206.761 51.9511 208.907 49.1776C211.05 46.404 211.24 45.4576 209.791 44.8891C208.404 44.3831 207.773 44.8891 206.702 47.4096C206.199 48.6715 205.125 49.8052 204.182 50.1831C201.408 51.2544 200.839 54.6588 203.048 57.1826C203.804 58.0633 203.804 58.3788 202.923 59.2628C202.354 59.8313 201.474 60.2716 201.033 60.2716C200.531 60.2716 200.087 61.0899 199.962 62.2893C199.775 64.054 199.331 64.5601 196.936 65.7562C195.358 66.4496 193.909 66.9557 193.722 66.8275C193.469 66.7026 193.153 64.8723 192.9 62.7297L192.46 58.8191L189.18 59.1971C185.585 59.6374 183.945 59.0064 184.514 57.4948C184.704 56.9887 184.576 56.3578 184.198 56.1081C183.82 55.855 184.073 55.3522 185.017 54.8462C186.216 54.2152 186.279 54.0279 185.457 53.9622C184.258 53.9622 184.008 52.8909 184.826 51.6914C185.079 51.3135 186.466 50.3671 187.977 49.5489C189.427 48.7306 190.626 47.8466 190.626 47.5936C190.626 47.3406 191.132 47.2157 191.822 47.3406C192.516 47.4655 194.533 46.2693 196.867 44.3765C200.839 41.1002 202.982 38.0703 202.226 36.8117C201.973 36.4338 202.164 36.2432 202.667 36.4338C203.173 36.6244 204.053 36.3714 204.622 35.8029C205.253 35.3001 206.387 34.794 207.142 34.6691C209.6 34.2912 210.484 34.1006 211.24 33.5978C212.124 33.0293 214.582 34.3537 214.582 35.3625C214.582 35.7404 216.284 36.6869 218.365 37.5051C223.409 39.5228 226.56 41.7278 226.56 43.3051C226.56 45.0698 224.858 45.5102 221.769 44.3765L219.058 43.43L222.022 46.7721C224.986 50.239 226.56 51.2478 225.302 48.8522C224.418 47.2124 224.924 46.5815 226.248 47.6527C227.066 48.3461 227.195 48.1555 227.195 46.4566C227.195 45.0699 227.51 44.5013 228.203 44.5013C229.212 44.5013 229.15 43.3051 228.078 40.4659C227.825 39.835 228.016 39.4571 228.585 39.4571C229.909 39.4571 230.98 40.7814 230.98 42.4212C230.98 43.2394 231.296 43.8704 231.611 43.8704C231.989 43.8704 232.242 43.3676 232.242 42.7367C232.242 40.4659 234.007 39.0167 237.286 38.5764C240.185 38.1985 240.375 38.0703 239.682 36.9366C238.295 34.7316 239.557 34.6659 244.283 36.5587C244.851 36.8117 243.464 35.1719 241.256 32.9012C239.113 30.6305 237.283 28.4879 237.283 28.1724C237.263 26.8054 238.966 27.5645 242.179 30.4004ZM207.947 33.8049C208.135 34.1828 207.885 34.2452 207.379 34.0579C206.245 33.6176 206.055 33.174 206.939 33.174C207.316 33.174 207.757 33.427 207.947 33.8049ZM204.477 35.0667C204.477 35.3822 204.162 35.6977 203.784 35.6977C203.468 35.6977 203.344 35.3822 203.531 35.0667C203.721 34.6888 204.034 34.4358 204.224 34.4358C204.352 34.4358 204.477 34.6888 204.477 35.0667ZM238.21 35.0667C238.397 35.3822 238.147 35.6977 237.641 35.6977C237.138 35.6977 236.507 35.3822 236.317 35.0667C236.126 34.6888 236.379 34.4358 236.885 34.4358C237.388 34.4358 238.019 34.6888 238.21 35.0667ZM201.579 38.2806C201.388 38.5961 200.757 38.8492 200.192 38.7834C199.499 38.7834 199.436 38.6586 199.939 38.4055C200.317 38.2806 200.57 37.837 200.379 37.5248C200.126 37.2093 200.442 37.1469 200.948 37.3342C201.516 37.5248 201.766 37.9651 201.579 38.2806ZM231.588 38.2806C231.588 38.6585 231.335 38.7209 230.957 38.5337C230.642 38.343 230.326 37.8403 230.326 37.5248C230.326 37.1469 230.642 37.0845 230.957 37.2718C231.335 37.4624 231.588 37.9651 231.588 38.2806ZM141.81 47.8631C142.001 48.4316 142.819 48.6189 143.953 48.4316C146.095 48.1161 148.997 49.6935 148.997 51.1427C148.997 52.467 145.717 53.9786 142.881 53.9786C139.792 53.9786 137.584 52.467 137.775 50.5742C138.153 47.9288 141.051 45.9735 141.81 47.8631ZM73.9707 50.4493C73.9707 50.8896 73.5303 51.6454 73.0242 52.0891C72.0154 52.9073 71.7624 52.2797 72.4557 50.5774C72.9618 49.3156 73.9707 49.2498 73.9707 50.4493ZM80.2735 53.2852C80.2735 53.6007 79.705 54.1035 78.9492 54.2941C77.8779 54.672 77.6873 55.0499 78.0028 56.6273C78.2558 57.8892 77.9404 59.2135 76.9315 60.9781C75.2917 63.8798 74.158 64.1296 74.158 61.5466C74.158 60.5378 73.7176 59.151 73.1491 58.5201C72.5806 57.8892 72.0778 57.0709 72.0778 56.7554C72.0778 56.2526 78.7619 52.72 79.8332 52.72C80.0862 52.72 80.2735 52.9698 80.2735 53.2852ZM167.344 53.6007C166.966 54.1035 165.957 54.6096 165.201 54.8626C163.877 55.1781 163.877 55.1156 165.392 53.9786C167.219 52.5294 168.415 52.3421 167.344 53.6007ZM171.064 53.8538C171.064 54.1068 170.748 54.6753 170.308 55.1156C169.739 55.6841 169.805 55.8714 170.623 55.8714C172.01 55.8714 172.01 57.0052 170.686 58.5201C169.677 59.529 169.739 59.8444 171.001 62.871C171.695 64.6357 172.138 66.4003 171.885 66.7782C171.698 67.0937 172.01 67.7871 172.579 68.2307C173.65 68.9865 173.587 69.1114 172.263 71.0042C171.254 72.2661 170.498 72.7689 169.805 72.5191C169.299 72.2661 166.903 71.8258 164.508 71.5727C162.174 71.3197 160.032 70.9418 159.841 70.7545C159.651 70.5639 160.472 69.9986 161.606 69.4926C162.993 68.9241 163.371 68.5462 162.802 68.2931C162.109 67.9777 162.171 67.7246 163.055 67.0312C163.686 66.4627 164.189 65.8318 164.126 65.5163C164.126 65.2633 164.82 64.9478 165.704 64.8229C167.659 64.5699 167.722 63.1207 165.894 61.4185C164.886 60.6003 164.695 60.0942 165.264 59.9069C165.641 59.7162 166.019 59.2759 166.019 58.9604C166.019 58.5825 165.766 58.5201 165.388 58.7074C165.073 58.898 164.757 58.645 164.757 58.0764C164.757 57.508 165.073 57.2582 165.388 57.4455C165.766 57.6361 166.019 57.508 166.019 57.1301C166.019 56.1212 168.983 53.3477 170.117 53.3477C170.623 53.3477 171.064 53.6007 171.064 53.8538ZM68.2955 57.6361C68.2955 57.9516 67.9176 58.645 67.5396 59.2135C66.9087 59.9693 66.4684 60.0974 65.775 59.6538C64.9567 59.0853 65.0192 58.898 66.028 58.0764C67.4115 57.0052 68.2955 56.8803 68.2955 57.6361ZM163.371 60.4096C164.255 61.2936 160.913 65.7694 158.579 66.6534C155.49 67.8495 153.157 65.582 155.931 64.0671C156.562 63.6892 157.002 63.0583 156.815 62.5555C156.059 60.6627 161.668 58.7074 163.371 60.4096ZM209.268 62.6804C209.081 62.8052 208.513 62.8052 207.944 62.5555C207.126 62.24 207.126 61.987 207.754 60.9157C208.572 59.6538 208.572 59.6538 209.078 61.0406C209.334 61.7339 209.397 62.4898 209.268 62.6804ZM203.219 64.0671C202.841 64.7605 202.4 65.329 202.272 65.329C202.082 65.329 201.957 64.7605 201.957 64.0671C201.957 63.3737 202.397 62.8052 202.903 62.8052C203.721 62.8052 203.784 63.0583 203.219 64.0671ZM192.312 67.0312C192.187 68.0401 191.743 68.7959 191.365 68.7335C189.663 68.6086 189.348 68.418 189.348 67.7871C189.348 67.4716 189.663 67.3467 190.104 67.5965C190.544 67.8495 190.606 67.7871 190.357 67.3434C189.788 66.397 190.419 65.3257 191.619 65.3257C192.246 65.329 192.499 65.8318 192.312 67.0312ZM23.3441 91.9338C23.1535 92.4365 22.9662 92.2493 22.9662 91.5559C22.9037 90.8625 23.091 90.4846 23.2816 90.7343C23.4689 90.9249 23.5314 91.4934 23.3441 91.9338ZM181.783 94.1421C181.783 94.773 181.53 95.7194 181.152 96.2222C180.837 96.7907 180.837 97.4217 181.215 97.862C182.098 98.9333 180.584 102.022 179.322 101.769C177.997 101.516 177.682 98.5554 178.881 97.5466C179.387 97.1062 179.637 96.3471 179.45 95.8443C178.947 94.5824 179.703 93.0708 180.837 93.0708C181.339 93.0708 181.783 93.5736 181.783 94.1421ZM22.838 97.609C22.838 98.7427 22.585 100.258 22.3352 100.951C21.8291 102.15 21.8291 102.15 21.1358 100.826C20.1894 99.0615 20.1894 97.2968 21.1358 96.3504C22.3976 95.0885 22.9004 95.4664 22.838 97.609ZM168.668 97.7963C168.668 98.1118 168.352 98.4897 167.975 98.6145C167.597 98.7394 167.281 98.3615 167.281 97.7963C167.281 97.2278 167.597 96.8499 167.975 96.978C168.352 97.1029 168.668 97.4841 168.668 97.7963ZM22.9004 104.418C22.9004 104.733 22.6474 105.049 22.2695 105.049C21.954 105.049 21.6385 104.733 21.6385 104.418C21.6385 104.04 21.954 103.787 22.2695 103.787C22.6474 103.787 22.9004 104.04 22.9004 104.418ZM191.237 107.004C191.237 108.897 189.473 109.147 187.77 107.573C185.815 105.745 186.131 105.239 188.967 105.555C190.672 105.742 191.237 106.12 191.237 107.004ZM14.4517 112.929C14.1987 113.813 14.2611 114.506 14.5766 114.506C14.8296 114.506 14.9545 115.64 14.8296 117.093C14.639 118.542 15.0202 120.813 15.6479 122.515C16.3413 124.279 16.5943 126.235 16.4037 127.812C16.2131 129.136 16.2788 130.145 16.5943 129.955C16.8473 129.83 16.9722 131.154 16.9098 132.981C16.7849 135.63 17.1628 137.079 18.9899 140.674C20.7546 144.269 21.2606 146.034 21.5104 149.941C21.8883 156.688 21.3855 159.021 19.3054 159.586C18.1059 159.839 17.8562 160.154 18.359 160.657C18.865 161.16 19.3678 161.098 20.1236 160.467C21.0076 159.773 21.2574 159.773 22.0165 160.845C22.5192 161.476 22.7723 162.547 22.585 163.115C22.3319 163.809 22.6474 164.377 23.4689 164.627C24.5402 164.942 26.6828 168.978 26.6828 170.618C26.6828 170.996 28.3226 172.888 30.3403 174.906C33.9354 178.564 39.4824 187.075 40.2382 190.351C40.9316 193 39.5448 195.27 35.9498 197.728L32.6702 199.937L32.2923 204.981C32.0392 207.755 31.4083 211.412 30.7806 213.052C29.7094 216.141 29.6469 216.141 27.3762 215.638C26.1143 215.385 24.5402 215.198 23.8468 215.132C22.5225 215.07 22.5225 215.007 23.2783 221.185C23.5938 223.328 23.4689 224.212 22.9629 224.212C22.5225 224.212 22.3319 224.402 22.4568 224.652C22.6474 224.967 22.5192 225.723 22.2662 226.417C21.0668 229.506 12.3683 206.493 9.46661 192.372C6.44663 177.933 5.43778 163.684 6.50906 150.444C7.32732 140.04 9.59805 126.928 11.6782 120.497C12.434 118.039 13.1274 115.643 13.1898 115.137C13.3147 113.626 14.1362 111.355 14.5142 111.355C14.7047 111.352 14.6423 112.048 14.4517 112.929ZM213.935 115.2C214.628 115.578 214.313 115.703 212.988 115.768C210.593 115.768 208.26 115.137 208.26 114.444C208.263 113.875 212.548 114.444 213.935 115.2ZM229.255 116.462C228.059 117.724 226.544 117.658 226.544 116.399C226.544 115.959 227.678 115.581 230.011 115.203C230.329 115.2 230.014 115.765 229.255 116.462ZM17.6689 125.978C17.4783 126.484 17.291 126.294 17.291 125.6C17.2285 124.907 17.4158 124.529 17.6064 124.779C17.7937 124.973 17.8562 125.538 17.6689 125.978ZM163.814 175.031C164.005 175.346 163.752 175.662 163.183 175.662C162.615 175.662 162.362 175.346 162.552 175.031C162.743 174.653 163.058 174.4 163.183 174.4C163.308 174.4 163.624 174.653 163.814 175.031ZM252.143 215.004C252.521 216.706 249.872 221.244 244.45 228.053C240.162 233.475 237.579 235.555 235.37 235.555C233.353 235.555 233.162 235.365 232.597 232.654C232.219 230.889 232.472 230.321 234.362 228.431C235.811 227.107 236.695 225.533 236.882 224.271C237.135 221.875 238.647 220.613 241.736 220.048C243.06 219.857 244.953 218.849 246.087 217.843C247.158 216.834 248.295 216.016 248.607 216.016C248.919 216.016 249.363 215.447 249.554 214.754C250.125 213.049 251.637 213.173 252.143 215.004ZM159.398 298.732C164.882 300.874 166.46 301.003 175.286 299.928C180.14 299.297 181.464 299.36 182.851 300.119C183.86 300.559 186.509 301.568 188.842 302.261C191.74 303.145 194.011 304.341 196.219 306.234C197.984 307.749 199.433 309.323 199.433 309.639C199.433 310.332 192.371 311.972 182.726 313.483C174.402 314.808 155.806 315.311 146.473 314.43C137.962 313.612 125.416 311.278 118.544 309.261C114.762 308.124 114.384 307.874 114.949 306.803C115.265 306.172 115.389 305.225 115.202 304.723C114.824 303.651 116.273 300.5 117.788 299.238C118.544 298.607 122.264 298.354 133.108 298.292C141.557 298.229 148.051 297.851 148.997 297.473C151.646 296.336 154.166 296.652 159.398 298.732ZM107.131 304.657C108.265 305.603 108.265 305.603 106.438 305.225C104.105 304.723 102.843 303.648 104.611 303.648C105.304 303.648 106.438 304.088 107.131 304.657ZM112.176 306.484C112.807 306.99 113.06 307.43 112.616 307.43C111.416 307.43 109.905 306.737 109.905 306.106C109.908 305.288 110.789 305.413 112.176 306.484Z" fill="#121116"/>
<path d="M163.499 16.1514C163.499 16.4669 164.192 16.7823 165.076 16.7823C165.957 16.7823 166.654 16.4669 166.654 16.1514C166.654 15.7735 165.96 15.5205 165.076 15.5205C164.192 15.5205 163.499 15.7735 163.499 16.1514Z" fill="#121116"/>
<path d="M131.659 10.414C130.147 11.8632 137.272 12.2411 139.161 10.7919C140.17 10.0361 139.855 9.91122 136.072 10.0361C133.802 10.0985 131.784 10.2891 131.659 10.414Z" fill="#121116"/>
<path d="M126.615 12.0541C125.166 12.7475 125.038 12.9381 125.984 12.9381C126.677 12.9381 127.811 12.5602 128.442 12.0541C129.957 10.9171 129.135 10.9171 126.615 12.0541Z" fill="#121116"/>
<path d="M251.006 39.1022C251.321 40.1111 251.824 41.0575 252.268 41.2448C253.339 41.5603 253.152 40.6763 251.765 38.8492L250.565 37.2718L251.006 39.1022Z" fill="#121116"/>
<path d="M231.272 91.1158L228.752 92.2496L230.645 93.2584L232.538 94.2048L230.773 94.8982C229.764 95.2761 228.755 95.5916 228.568 95.5916C227.75 95.5916 225.982 93.1335 226.55 92.9429C226.866 92.8181 226.297 92.2496 225.226 91.6186C223.271 90.5473 223.271 90.5473 221.631 92.312C219.426 94.6452 217.408 100.067 218.414 100.698C218.854 100.951 218.982 101.645 218.729 102.21C218.414 103.094 218.604 103.219 219.738 102.903C227.681 100.445 229.133 100.317 232.409 101.579C233.987 102.147 236.382 102.525 238.272 102.397C240.858 102.207 241.361 102.019 241.552 100.886C241.676 99.8767 241.045 99.1209 239.031 97.859C235.12 95.5259 232.978 93.5706 233.987 93.2551C234.805 92.9396 235.058 89.8507 234.302 89.9755C233.983 89.9821 232.662 90.4849 231.272 91.1158Z" fill="#121116"/>
</svg>
