<svg viewBox="0 0 184 185" fill="none" xmlns="http://www.w3.org/2000/svg">
<path fill-rule="evenodd" clip-rule="evenodd" d="M182.879 131.395C176.002 145.2 165.933 157.157 153.511 166.267C141.09 175.377 126.676 181.377 111.472 183.767C96.2677 186.156 80.7143 184.866 66.1087 180.003C51.5032 175.14 38.2689 166.846 27.5096 155.812C16.7504 144.779 8.77816 131.325 4.25782 116.574C-0.262527 101.823 -1.19992 86.2023 1.52381 71.0143C4.24754 55.8262 10.5535 41.5114 19.9156 29.2636C29.2777 17.0159 41.4247 7.19035 55.3433 0.606481C59.7561 -1.45543 64.2289 1.97607 62.0525 7.33403C52.9252 23.336 49.2521 41.8866 51.5906 60.1712C53.929 78.4559 62.1514 95.4768 75.0102 108.652C87.8689 121.826 104.662 130.436 122.843 133.174C141.023 135.912 159.598 132.63 175.749 123.824L176.485 123.418C177.452 122.904 178.559 122.714 179.641 122.877C180.724 123.04 181.727 123.547 182.501 124.324C183.275 125.1 183.781 126.105 183.943 127.191C184.106 128.277 183.917 129.386 183.404 130.356L182.879 131.395V131.395ZM138.766 112.386H138.075C137.933 106.133 135.386 100.176 130.967 95.7613C126.547 91.3467 120.597 88.8155 114.36 88.6967V87.9141C117.45 87.9227 120.509 87.2969 123.349 86.0752C126.188 84.8535 128.748 83.0617 130.871 80.8103C133.108 78.6758 134.89 76.1077 136.108 73.2618C137.326 70.4159 137.954 67.3516 137.955 64.2548H138.721C138.716 67.3525 139.341 70.4187 140.56 73.2655C141.778 76.1122 143.563 78.6796 145.805 80.8103C147.93 83.0589 150.491 84.8487 153.329 86.0702C156.168 87.2918 159.226 87.9192 162.316 87.9141V88.6817C156.107 88.8499 150.201 91.404 145.818 95.816C141.434 100.228 138.91 106.16 138.766 112.386V112.386ZM153.91 42.2661H153.505C153.512 40.6296 153.184 39.0091 152.542 37.505C151.899 36.0008 150.955 34.6451 149.768 33.5218C148.651 32.3354 147.304 31.3908 145.809 30.7463C144.315 30.1018 142.704 29.771 141.077 29.7742V29.3679C142.706 29.3673 144.318 29.0317 145.813 28.382C147.308 27.7322 148.654 26.7821 149.768 25.5902C150.948 24.4654 151.889 23.1115 152.531 21.6108C153.174 20.1101 153.505 18.4941 153.505 16.861H153.91C153.903 18.4897 154.224 20.1032 154.857 21.6036C155.489 23.104 156.418 24.4603 157.588 25.5902C158.711 26.7761 160.064 27.72 161.563 28.3643C163.062 29.0086 164.677 29.3398 166.308 29.3378V29.7441C164.675 29.746 163.059 30.0819 161.559 30.7315C160.06 31.381 158.709 32.3305 157.588 33.5218C156.401 34.6451 155.457 36.0008 154.814 37.505C154.171 39.0091 153.843 40.6296 153.85 42.2661H153.91ZM91.6211 54.3065H91.0057C91.0163 51.8223 90.5182 49.3624 89.5423 47.079C88.5664 44.7957 87.1335 42.7375 85.3322 41.032C83.6218 39.2238 81.5583 37.7882 79.2704 36.8146C76.9825 35.841 74.5191 35.3503 72.0338 35.373V34.7559C74.5111 34.7657 76.964 34.2658 79.241 33.2873C81.518 32.3088 83.5707 30.8724 85.2721 29.0669C87.0713 27.3597 88.5028 25.3012 89.4786 23.0182C90.4543 20.7353 90.9536 18.2762 90.9457 15.7924H91.5611C91.5504 18.2752 92.0469 20.7339 93.0201 23.0169C93.9933 25.3 95.4225 27.3589 97.2197 29.0669C98.9239 30.8728 100.979 32.3093 103.259 33.2878C105.538 34.2663 107.993 34.7659 110.473 34.7559V35.373C107.993 35.363 105.538 35.8627 103.259 36.8412C100.979 37.8196 98.9239 39.2562 97.2197 41.0621C95.4225 42.77 93.9933 44.829 93.0201 47.112C92.0469 49.395 91.5504 51.8537 91.5611 54.3366L91.6211 54.3065Z" fill="#121116"/>
</svg>
