<?xml version="1.0" encoding="UTF-8"?><svg xmlns="http://www.w3.org/2000/svg" viewBox="0 0 64 64"><title>QR Code icon - Uncanny Automator</title><g id="a"><rect width="64" height="64" style="fill:none; stroke-width:0px;"/></g><g id="b"><g id="c"><rect width="64" height="64" rx="8" ry="8" style="fill:#0790e8; stroke-width:0px;"/></g></g><g id="d"><rect id="e" x="10" y="10" width="1.52" height="1.52" style="fill:#fff; stroke-width:0px;"/><rect id="f" x="11.52" y="10" width="1.52" height="1.52" style="fill:#fff; stroke-width:0px;"/><rect id="g" x="13.03" y="10" width="1.52" height="1.52" style="fill:#fff; stroke-width:0px;"/><rect id="h" x="14.55" y="10" width="1.52" height="1.52" style="fill:#fff; stroke-width:0px;"/><rect id="i" x="16.07" y="10" width="1.52" height="1.52" style="fill:#fff; stroke-width:0px;"/><rect id="j" x="17.59" y="10" width="1.52" height="1.52" style="fill:#fff; stroke-width:0px;"/><rect id="k" x="19.1" y="10" width="1.52" height="1.52" style="fill:#fff; stroke-width:0px;"/><rect id="l" x="22.14" y="10" width="1.52" height="1.52" style="fill:#fff; stroke-width:0px;"/><rect id="m" x="23.66" y="10" width="1.52" height="1.52" style="fill:#fff; stroke-width:0px;"/><rect id="n" x="31.24" y="10" width="1.52" height="1.52" style="fill:#fff; stroke-width:0px;"/><rect id="o" x="32.76" y="10" width="1.52" height="1.52" style="fill:#fff; stroke-width:0px;"/><rect id="p" x="38.83" y="10" width="1.52" height="1.52" style="fill:#fff; stroke-width:0px;"/><rect id="q" x="40.34" y="10" width="1.52" height="1.52" style="fill:#fff; stroke-width:0px;"/><rect id="r" x="43.38" y="10" width="1.52" height="1.52" style="fill:#fff; stroke-width:0px;"/><rect id="s" x="44.9" y="10" width="1.52" height="1.52" style="fill:#fff; stroke-width:0px;"/><rect id="t" x="46.41" y="10" width="1.52" height="1.52" style="fill:#fff; stroke-width:0px;"/><rect id="u" x="47.93" y="10" width="1.52" height="1.52" style="fill:#fff; stroke-width:0px;"/><rect id="v" x="49.45" y="10" width="1.52" height="1.52" style="fill:#fff; stroke-width:0px;"/><rect id="w" x="50.97" y="10" width="1.52" height="1.52" style="fill:#fff; stroke-width:0px;"/><rect id="x" x="52.48" y="10" width="1.52" height="1.52" style="fill:#fff; stroke-width:0px;"/><rect id="y" x="10" y="11.52" width="1.52" height="1.52" style="fill:#fff; stroke-width:0px;"/><rect id="z" x="19.1" y="11.52" width="1.52" height="1.52" style="fill:#fff; stroke-width:0px;"/><rect id="aa" x="29.72" y="11.52" width="1.52" height="1.52" style="fill:#fff; stroke-width:0px;"/><rect id="ab" x="37.31" y="11.52" width="1.52" height="1.52" style="fill:#fff; stroke-width:0px;"/><rect id="ac" x="40.34" y="11.52" width="1.52" height="1.52" style="fill:#fff; stroke-width:0px;"/><rect id="ad" x="43.38" y="11.52" width="1.52" height="1.52" style="fill:#fff; stroke-width:0px;"/><rect id="ae" x="52.48" y="11.52" width="1.52" height="1.52" style="fill:#fff; stroke-width:0px;"/><rect id="af" x="10" y="13.03" width="1.52" height="1.52" style="fill:#fff; stroke-width:0px;"/><rect id="ag" x="13.03" y="13.03" width="1.52" height="1.52" style="fill:#fff; stroke-width:0px;"/><rect id="ah" x="14.55" y="13.03" width="1.52" height="1.52" style="fill:#fff; stroke-width:0px;"/><rect id="ai" x="16.07" y="13.03" width="1.52" height="1.52" style="fill:#fff; stroke-width:0px;"/><rect id="aj" x="19.1" y="13.03" width="1.52" height="1.52" style="fill:#fff; stroke-width:0px;"/><rect id="ak" x="22.14" y="13.03" width="1.52" height="1.52" style="fill:#fff; stroke-width:0px;"/><rect id="al" x="26.69" y="13.03" width="1.52" height="1.52" style="fill:#fff; stroke-width:0px;"/><rect id="am" x="28.21" y="13.03" width="1.52" height="1.52" style="fill:#fff; stroke-width:0px;"/><rect id="an" x="29.72" y="13.03" width="1.52" height="1.52" style="fill:#fff; stroke-width:0px;"/><rect id="ao" x="31.24" y="13.03" width="1.52" height="1.52" style="fill:#fff; stroke-width:0px;"/><rect id="ap" x="32.76" y="13.03" width="1.52" height="1.52" style="fill:#fff; stroke-width:0px;"/><rect id="aq" x="35.79" y="13.03" width="1.52" height="1.52" style="fill:#fff; stroke-width:0px;"/><rect id="ar" x="40.34" y="13.03" width="1.52" height="1.52" style="fill:#fff; stroke-width:0px;"/><rect id="as" x="43.38" y="13.03" width="1.52" height="1.52" style="fill:#fff; stroke-width:0px;"/><rect id="at" x="46.41" y="13.03" width="1.52" height="1.52" style="fill:#fff; stroke-width:0px;"/><rect id="au" x="47.93" y="13.03" width="1.52" height="1.52" style="fill:#fff; stroke-width:0px;"/><rect id="av" x="49.45" y="13.03" width="1.52" height="1.52" style="fill:#fff; stroke-width:0px;"/><rect id="aw" x="52.48" y="13.03" width="1.52" height="1.52" style="fill:#fff; stroke-width:0px;"/><rect id="ax" x="10" y="14.55" width="1.52" height="1.52" style="fill:#fff; stroke-width:0px;"/><rect id="ay" x="13.03" y="14.55" width="1.52" height="1.52" style="fill:#fff; stroke-width:0px;"/><rect id="az" x="14.55" y="14.55" width="1.52" height="1.52" style="fill:#fff; stroke-width:0px;"/><rect id="ba" x="16.07" y="14.55" width="1.52" height="1.52" style="fill:#fff; stroke-width:0px;"/><rect id="bb" x="19.1" y="14.55" width="1.52" height="1.52" style="fill:#fff; stroke-width:0px;"/><rect id="bc" x="22.14" y="14.55" width="1.52" height="1.52" style="fill:#fff; stroke-width:0px;"/><rect id="bd" x="23.66" y="14.55" width="1.52" height="1.52" style="fill:#fff; stroke-width:0px;"/><rect id="be" x="26.69" y="14.55" width="1.52" height="1.52" style="fill:#fff; stroke-width:0px;"/><rect id="bf" x="28.21" y="14.55" width="1.52" height="1.52" style="fill:#fff; stroke-width:0px;"/><rect id="bg" x="31.24" y="14.55" width="1.52" height="1.52" style="fill:#fff; stroke-width:0px;"/><rect id="bh" x="32.76" y="14.55" width="1.52" height="1.52" style="fill:#fff; stroke-width:0px;"/><rect id="bi" x="37.31" y="14.55" width="1.52" height="1.52" style="fill:#fff; stroke-width:0px;"/><rect id="bj" x="40.34" y="14.55" width="1.52" height="1.52" style="fill:#fff; stroke-width:0px;"/><rect id="bk" x="43.38" y="14.55" width="1.52" height="1.52" style="fill:#fff; stroke-width:0px;"/><rect id="bl" x="46.41" y="14.55" width="1.52" height="1.52" style="fill:#fff; stroke-width:0px;"/><rect id="bm" x="47.93" y="14.55" width="1.52" height="1.52" style="fill:#fff; stroke-width:0px;"/><rect id="bn" x="49.45" y="14.55" width="1.52" height="1.52" style="fill:#fff; stroke-width:0px;"/><rect id="bo" x="52.48" y="14.55" width="1.52" height="1.52" style="fill:#fff; stroke-width:0px;"/><rect id="bp" x="10" y="16.07" width="1.52" height="1.52" style="fill:#fff; stroke-width:0px;"/><rect id="bq" x="13.03" y="16.07" width="1.52" height="1.52" style="fill:#fff; stroke-width:0px;"/><rect id="br" x="14.55" y="16.07" width="1.52" height="1.52" style="fill:#fff; stroke-width:0px;"/><rect id="bs" x="16.07" y="16.07" width="1.52" height="1.52" style="fill:#fff; stroke-width:0px;"/><rect id="bt" x="19.1" y="16.07" width="1.52" height="1.52" style="fill:#fff; stroke-width:0px;"/><rect id="bu" x="22.14" y="16.07" width="1.52" height="1.52" style="fill:#fff; stroke-width:0px;"/><rect id="bv" x="23.66" y="16.07" width="1.52" height="1.52" style="fill:#fff; stroke-width:0px;"/><rect id="bw" x="25.17" y="16.07" width="1.52" height="1.52" style="fill:#fff; stroke-width:0px;"/><rect id="bx" x="26.69" y="16.07" width="1.52" height="1.52" style="fill:#fff; stroke-width:0px;"/><rect id="by" x="31.24" y="16.07" width="1.52" height="1.52" style="fill:#fff; stroke-width:0px;"/><rect id="bz" x="32.76" y="16.07" width="1.52" height="1.52" style="fill:#fff; stroke-width:0px;"/><rect id="ca" x="35.79" y="16.07" width="1.52" height="1.52" style="fill:#fff; stroke-width:0px;"/><rect id="cb" x="37.31" y="16.07" width="1.52" height="1.52" style="fill:#fff; stroke-width:0px;"/><rect id="cc" x="43.38" y="16.07" width="1.52" height="1.52" style="fill:#fff; stroke-width:0px;"/><rect id="cd" x="46.41" y="16.07" width="1.52" height="1.52" style="fill:#fff; stroke-width:0px;"/><rect id="ce" x="47.93" y="16.07" width="1.52" height="1.52" style="fill:#fff; stroke-width:0px;"/><rect id="cf" x="49.45" y="16.07" width="1.52" height="1.52" style="fill:#fff; stroke-width:0px;"/><rect id="cg" x="52.48" y="16.07" width="1.52" height="1.52" style="fill:#fff; stroke-width:0px;"/><rect id="ch" x="10" y="17.59" width="1.52" height="1.52" style="fill:#fff; stroke-width:0px;"/><rect id="ci" x="19.1" y="17.59" width="1.52" height="1.52" style="fill:#fff; stroke-width:0px;"/><rect id="cj" x="23.66" y="17.59" width="1.52" height="1.52" style="fill:#fff; stroke-width:0px;"/><rect id="ck" x="31.24" y="17.59" width="1.52" height="1.52" style="fill:#fff; stroke-width:0px;"/><rect id="cl" x="35.79" y="17.59" width="1.52" height="1.52" style="fill:#fff; stroke-width:0px;"/><rect id="cm" x="37.31" y="17.59" width="1.52" height="1.52" style="fill:#fff; stroke-width:0px;"/><rect id="cn" x="38.83" y="17.59" width="1.52" height="1.52" style="fill:#fff; stroke-width:0px;"/><rect id="co" x="40.34" y="17.59" width="1.52" height="1.52" style="fill:#fff; stroke-width:0px;"/><rect id="cp" x="43.38" y="17.59" width="1.52" height="1.52" style="fill:#fff; stroke-width:0px;"/><rect id="cq" x="52.48" y="17.59" width="1.52" height="1.52" style="fill:#fff; stroke-width:0px;"/><rect id="cr" x="10" y="19.1" width="1.52" height="1.52" style="fill:#fff; stroke-width:0px;"/><rect id="cs" x="11.52" y="19.1" width="1.52" height="1.52" style="fill:#fff; stroke-width:0px;"/><rect id="ct" x="13.03" y="19.1" width="1.52" height="1.52" style="fill:#fff; stroke-width:0px;"/><rect id="cu" x="14.55" y="19.1" width="1.52" height="1.52" style="fill:#fff; stroke-width:0px;"/><rect id="cv" x="16.07" y="19.1" width="1.52" height="1.52" style="fill:#fff; stroke-width:0px;"/><rect id="cw" x="17.59" y="19.1" width="1.52" height="1.52" style="fill:#fff; stroke-width:0px;"/><rect id="cx" x="19.1" y="19.1" width="1.52" height="1.52" style="fill:#fff; stroke-width:0px;"/><rect id="cy" x="22.14" y="19.1" width="1.52" height="1.52" style="fill:#fff; stroke-width:0px;"/><rect id="cz" x="25.17" y="19.1" width="1.52" height="1.52" style="fill:#fff; stroke-width:0px;"/><rect id="da" x="28.21" y="19.1" width="1.52" height="1.52" style="fill:#fff; stroke-width:0px;"/><rect id="db" x="31.24" y="19.1" width="1.52" height="1.52" style="fill:#fff; stroke-width:0px;"/><rect id="dc" x="34.28" y="19.1" width="1.52" height="1.52" style="fill:#fff; stroke-width:0px;"/><rect id="dd" x="37.31" y="19.1" width="1.52" height="1.52" style="fill:#fff; stroke-width:0px;"/><rect id="de" x="40.34" y="19.1" width="1.52" height="1.52" style="fill:#fff; stroke-width:0px;"/><rect id="df" x="43.38" y="19.1" width="1.52" height="1.52" style="fill:#fff; stroke-width:0px;"/><rect id="dg" x="44.9" y="19.1" width="1.52" height="1.52" style="fill:#fff; stroke-width:0px;"/><rect id="dh" x="46.41" y="19.1" width="1.52" height="1.52" style="fill:#fff; stroke-width:0px;"/><rect id="di" x="47.93" y="19.1" width="1.52" height="1.52" style="fill:#fff; stroke-width:0px;"/><rect id="dj" x="49.45" y="19.1" width="1.52" height="1.52" style="fill:#fff; stroke-width:0px;"/><rect id="dk" x="50.97" y="19.1" width="1.52" height="1.52" style="fill:#fff; stroke-width:0px;"/><rect id="dl" x="52.48" y="19.1" width="1.52" height="1.52" style="fill:#fff; stroke-width:0px;"/><rect id="dm" x="23.66" y="20.62" width="1.52" height="1.52" style="fill:#fff; stroke-width:0px;"/><rect id="dn" x="26.69" y="20.62" width="1.52" height="1.52" style="fill:#fff; stroke-width:0px;"/><rect id="do" x="29.72" y="20.62" width="1.52" height="1.52" style="fill:#fff; stroke-width:0px;"/><rect id="dp" x="31.24" y="20.62" width="1.52" height="1.52" style="fill:#fff; stroke-width:0px;"/><rect id="dq" x="32.76" y="20.62" width="1.52" height="1.52" style="fill:#fff; stroke-width:0px;"/><rect id="dr" x="34.28" y="20.62" width="1.52" height="1.52" style="fill:#fff; stroke-width:0px;"/><rect id="ds" x="38.83" y="20.62" width="1.52" height="1.52" style="fill:#fff; stroke-width:0px;"/><rect id="dt" x="10" y="22.14" width="1.52" height="1.52" style="fill:#fff; stroke-width:0px;"/><rect id="du" x="11.52" y="22.14" width="1.52" height="1.52" style="fill:#fff; stroke-width:0px;"/><rect id="dv" x="13.03" y="22.14" width="1.52" height="1.52" style="fill:#fff; stroke-width:0px;"/><rect id="dw" x="14.55" y="22.14" width="1.52" height="1.52" style="fill:#fff; stroke-width:0px;"/><rect id="dx" x="19.1" y="22.14" width="1.52" height="1.52" style="fill:#fff; stroke-width:0px;"/><rect id="dy" x="22.14" y="22.14" width="1.52" height="1.52" style="fill:#fff; stroke-width:0px;"/><rect id="dz" x="28.21" y="22.14" width="1.52" height="1.52" style="fill:#fff; stroke-width:0px;"/><rect id="ea" x="29.72" y="22.14" width="1.52" height="1.52" style="fill:#fff; stroke-width:0px;"/><rect id="eb" x="35.79" y="22.14" width="1.52" height="1.52" style="fill:#fff; stroke-width:0px;"/><rect id="ec" x="37.31" y="22.14" width="1.52" height="1.52" style="fill:#fff; stroke-width:0px;"/><rect id="ed" x="38.83" y="22.14" width="1.52" height="1.52" style="fill:#fff; stroke-width:0px;"/><rect id="ee" x="41.86" y="22.14" width="1.52" height="1.52" style="fill:#fff; stroke-width:0px;"/><rect id="ef" x="46.41" y="22.14" width="1.52" height="1.52" style="fill:#fff; stroke-width:0px;"/><rect id="eg" x="47.93" y="22.14" width="1.52" height="1.52" style="fill:#fff; stroke-width:0px;"/><rect id="eh" x="49.45" y="22.14" width="1.52" height="1.52" style="fill:#fff; stroke-width:0px;"/><rect id="ei" x="52.48" y="22.14" width="1.52" height="1.52" style="fill:#fff; stroke-width:0px;"/><rect id="ej" x="10" y="23.66" width="1.52" height="1.52" style="fill:#fff; stroke-width:0px;"/><rect id="ek" x="13.03" y="23.66" width="1.52" height="1.52" style="fill:#fff; stroke-width:0px;"/><rect id="el" x="16.07" y="23.66" width="1.52" height="1.52" style="fill:#fff; stroke-width:0px;"/><rect id="em" x="17.59" y="23.66" width="1.52" height="1.52" style="fill:#fff; stroke-width:0px;"/><rect id="en" x="22.14" y="23.66" width="1.52" height="1.52" style="fill:#fff; stroke-width:0px;"/><rect id="eo" x="23.66" y="23.66" width="1.52" height="1.52" style="fill:#fff; stroke-width:0px;"/><rect id="ep" x="31.24" y="23.66" width="1.52" height="1.52" style="fill:#fff; stroke-width:0px;"/><rect id="eq" x="34.28" y="23.66" width="1.52" height="1.52" style="fill:#fff; stroke-width:0px;"/><rect id="er" x="37.31" y="23.66" width="1.52" height="1.52" style="fill:#fff; stroke-width:0px;"/><rect id="es" x="40.34" y="23.66" width="1.52" height="1.52" style="fill:#fff; stroke-width:0px;"/><rect id="et" x="41.86" y="23.66" width="1.52" height="1.52" style="fill:#fff; stroke-width:0px;"/><rect id="eu" x="44.9" y="23.66" width="1.52" height="1.52" style="fill:#fff; stroke-width:0px;"/><rect id="ev" x="46.41" y="23.66" width="1.52" height="1.52" style="fill:#fff; stroke-width:0px;"/><rect id="ew" x="47.93" y="23.66" width="1.52" height="1.52" style="fill:#fff; stroke-width:0px;"/><rect id="ex" x="50.97" y="23.66" width="1.52" height="1.52" style="fill:#fff; stroke-width:0px;"/><rect id="ey" x="16.07" y="25.17" width="1.52" height="1.52" style="fill:#fff; stroke-width:0px;"/><rect id="ez" x="19.1" y="25.17" width="1.52" height="1.52" style="fill:#fff; stroke-width:0px;"/><rect id="fa" x="20.62" y="25.17" width="1.52" height="1.52" style="fill:#fff; stroke-width:0px;"/><rect id="fb" x="22.14" y="25.17" width="1.52" height="1.52" style="fill:#fff; stroke-width:0px;"/><rect id="fc" x="26.69" y="25.17" width="1.52" height="1.52" style="fill:#fff; stroke-width:0px;"/><rect id="fd" x="29.72" y="25.17" width="1.52" height="1.52" style="fill:#fff; stroke-width:0px;"/><rect id="fe" x="38.83" y="25.17" width="1.52" height="1.52" style="fill:#fff; stroke-width:0px;"/><rect id="ff" x="40.34" y="25.17" width="1.52" height="1.52" style="fill:#fff; stroke-width:0px;"/><rect id="fg" x="41.86" y="25.17" width="1.52" height="1.52" style="fill:#fff; stroke-width:0px;"/><rect id="fh" x="46.41" y="25.17" width="1.52" height="1.52" style="fill:#fff; stroke-width:0px;"/><rect id="fi" x="47.93" y="25.17" width="1.52" height="1.52" style="fill:#fff; stroke-width:0px;"/><rect id="fj" x="50.97" y="25.17" width="1.52" height="1.52" style="fill:#fff; stroke-width:0px;"/><rect id="fk" x="10" y="26.69" width="1.52" height="1.52" style="fill:#fff; stroke-width:0px;"/><rect id="fl" x="11.52" y="26.69" width="1.52" height="1.52" style="fill:#fff; stroke-width:0px;"/><rect id="fm" x="13.03" y="26.69" width="1.52" height="1.52" style="fill:#fff; stroke-width:0px;"/><rect id="fn" x="14.55" y="26.69" width="1.52" height="1.52" style="fill:#fff; stroke-width:0px;"/><rect id="fo" x="20.62" y="26.69" width="1.52" height="1.52" style="fill:#fff; stroke-width:0px;"/><rect id="fp" x="26.69" y="26.69" width="1.52" height="1.52" style="fill:#fff; stroke-width:0px;"/><rect id="fq" x="28.21" y="26.69" width="1.52" height="1.52" style="fill:#fff; stroke-width:0px;"/><rect id="fr" x="32.76" y="26.69" width="1.52" height="1.52" style="fill:#fff; stroke-width:0px;"/><rect id="fs" x="35.79" y="26.69" width="1.52" height="1.52" style="fill:#fff; stroke-width:0px;"/><rect id="ft" x="40.34" y="26.69" width="1.52" height="1.52" style="fill:#fff; stroke-width:0px;"/><rect id="fu" x="44.9" y="26.69" width="1.52" height="1.52" style="fill:#fff; stroke-width:0px;"/><rect id="fv" x="50.97" y="26.69" width="1.52" height="1.52" style="fill:#fff; stroke-width:0px;"/><rect id="fw" x="11.52" y="28.21" width="1.52" height="1.52" style="fill:#fff; stroke-width:0px;"/><rect id="fx" x="14.55" y="28.21" width="1.52" height="1.52" style="fill:#fff; stroke-width:0px;"/><rect id="fy" x="19.1" y="28.21" width="1.52" height="1.52" style="fill:#fff; stroke-width:0px;"/><rect id="fz" x="23.66" y="28.21" width="1.52" height="1.52" style="fill:#fff; stroke-width:0px;"/><rect id="ga" x="28.21" y="28.21" width="1.52" height="1.52" style="fill:#fff; stroke-width:0px;"/><rect id="gb" x="29.72" y="28.21" width="1.52" height="1.52" style="fill:#fff; stroke-width:0px;"/><rect id="gc" x="31.24" y="28.21" width="1.52" height="1.52" style="fill:#fff; stroke-width:0px;"/><rect id="gd" x="32.76" y="28.21" width="1.52" height="1.52" style="fill:#fff; stroke-width:0px;"/><rect id="ge" x="34.28" y="28.21" width="1.52" height="1.52" style="fill:#fff; stroke-width:0px;"/><rect id="gf" x="35.79" y="28.21" width="1.52" height="1.52" style="fill:#fff; stroke-width:0px;"/><rect id="gg" x="43.38" y="28.21" width="1.52" height="1.52" style="fill:#fff; stroke-width:0px;"/><rect id="gh" x="44.9" y="28.21" width="1.52" height="1.52" style="fill:#fff; stroke-width:0px;"/><rect id="gi" x="46.41" y="28.21" width="1.52" height="1.52" style="fill:#fff; stroke-width:0px;"/><rect id="gj" x="10" y="29.72" width="1.52" height="1.52" style="fill:#fff; stroke-width:0px;"/><rect id="gk" x="11.52" y="29.72" width="1.52" height="1.52" style="fill:#fff; stroke-width:0px;"/><rect id="gl" x="14.55" y="29.72" width="1.52" height="1.52" style="fill:#fff; stroke-width:0px;"/><rect id="gm" x="16.07" y="29.72" width="1.52" height="1.52" style="fill:#fff; stroke-width:0px;"/><rect id="gn" x="17.59" y="29.72" width="1.52" height="1.52" style="fill:#fff; stroke-width:0px;"/><rect id="go" x="22.14" y="29.72" width="1.52" height="1.52" style="fill:#fff; stroke-width:0px;"/><rect id="gp" x="23.66" y="29.72" width="1.52" height="1.52" style="fill:#fff; stroke-width:0px;"/><rect id="gq" x="25.17" y="29.72" width="1.52" height="1.52" style="fill:#fff; stroke-width:0px;"/><rect id="gr" x="26.69" y="29.72" width="1.52" height="1.52" style="fill:#fff; stroke-width:0px;"/><rect id="gs" x="28.21" y="29.72" width="1.52" height="1.52" style="fill:#fff; stroke-width:0px;"/><rect id="gt" x="34.28" y="29.72" width="1.52" height="1.52" style="fill:#fff; stroke-width:0px;"/><rect id="gu" x="35.79" y="29.72" width="1.52" height="1.52" style="fill:#fff; stroke-width:0px;"/><rect id="gv" x="40.34" y="29.72" width="1.52" height="1.52" style="fill:#fff; stroke-width:0px;"/><rect id="gw" x="41.86" y="29.72" width="1.52" height="1.52" style="fill:#fff; stroke-width:0px;"/><rect id="gx" x="43.38" y="29.72" width="1.52" height="1.52" style="fill:#fff; stroke-width:0px;"/><rect id="gy" x="47.93" y="29.72" width="1.52" height="1.52" style="fill:#fff; stroke-width:0px;"/><rect id="gz" x="49.45" y="29.72" width="1.52" height="1.52" style="fill:#fff; stroke-width:0px;"/><rect id="ha" x="14.55" y="31.24" width="1.52" height="1.52" style="fill:#fff; stroke-width:0px;"/><rect id="hb" x="16.07" y="31.24" width="1.52" height="1.52" style="fill:#fff; stroke-width:0px;"/><rect id="hc" x="19.1" y="31.24" width="1.52" height="1.52" style="fill:#fff; stroke-width:0px;"/><rect id="hd" x="25.17" y="31.24" width="1.52" height="1.52" style="fill:#fff; stroke-width:0px;"/><rect id="he" x="31.24" y="31.24" width="1.52" height="1.52" style="fill:#fff; stroke-width:0px;"/><rect id="hf" x="34.28" y="31.24" width="1.52" height="1.52" style="fill:#fff; stroke-width:0px;"/><rect id="hg" x="35.79" y="31.24" width="1.52" height="1.52" style="fill:#fff; stroke-width:0px;"/><rect id="hh" x="37.31" y="31.24" width="1.52" height="1.52" style="fill:#fff; stroke-width:0px;"/><rect id="hi" x="38.83" y="31.24" width="1.52" height="1.52" style="fill:#fff; stroke-width:0px;"/><rect id="hj" x="40.34" y="31.24" width="1.52" height="1.52" style="fill:#fff; stroke-width:0px;"/><rect id="hk" x="41.86" y="31.24" width="1.52" height="1.52" style="fill:#fff; stroke-width:0px;"/><rect id="hl" x="43.38" y="31.24" width="1.52" height="1.52" style="fill:#fff; stroke-width:0px;"/><rect id="hm" x="44.9" y="31.24" width="1.52" height="1.52" style="fill:#fff; stroke-width:0px;"/><rect id="hn" x="46.41" y="31.24" width="1.52" height="1.52" style="fill:#fff; stroke-width:0px;"/><rect id="ho" x="49.45" y="31.24" width="1.52" height="1.52" style="fill:#fff; stroke-width:0px;"/><rect id="hp" x="13.03" y="32.76" width="1.52" height="1.52" style="fill:#fff; stroke-width:0px;"/><rect id="hq" x="14.55" y="32.76" width="1.52" height="1.52" style="fill:#fff; stroke-width:0px;"/><rect id="hr" x="16.07" y="32.76" width="1.52" height="1.52" style="fill:#fff; stroke-width:0px;"/><rect id="hs" x="20.62" y="32.76" width="1.52" height="1.52" style="fill:#fff; stroke-width:0px;"/><rect id="ht" x="22.14" y="32.76" width="1.52" height="1.52" style="fill:#fff; stroke-width:0px;"/><rect id="hu" x="26.69" y="32.76" width="1.52" height="1.52" style="fill:#fff; stroke-width:0px;"/><rect id="hv" x="29.72" y="32.76" width="1.52" height="1.52" style="fill:#fff; stroke-width:0px;"/><rect id="hw" x="34.28" y="32.76" width="1.52" height="1.52" style="fill:#fff; stroke-width:0px;"/><rect id="hx" x="37.31" y="32.76" width="1.52" height="1.52" style="fill:#fff; stroke-width:0px;"/><rect id="hy" x="38.83" y="32.76" width="1.52" height="1.52" style="fill:#fff; stroke-width:0px;"/><rect id="hz" x="40.34" y="32.76" width="1.52" height="1.52" style="fill:#fff; stroke-width:0px;"/><rect id="ia" x="41.86" y="32.76" width="1.52" height="1.52" style="fill:#fff; stroke-width:0px;"/><rect id="ib" x="43.38" y="32.76" width="1.52" height="1.52" style="fill:#fff; stroke-width:0px;"/><rect id="ic" x="44.9" y="32.76" width="1.52" height="1.52" style="fill:#fff; stroke-width:0px;"/><rect id="id" x="46.41" y="32.76" width="1.52" height="1.52" style="fill:#fff; stroke-width:0px;"/><rect id="ie" x="50.97" y="32.76" width="1.52" height="1.52" style="fill:#fff; stroke-width:0px;"/><rect id="if" x="52.48" y="32.76" width="1.52" height="1.52" style="fill:#fff; stroke-width:0px;"/><rect id="ig" x="10" y="34.28" width="1.52" height="1.52" style="fill:#fff; stroke-width:0px;"/><rect id="ih" x="11.52" y="34.28" width="1.52" height="1.52" style="fill:#fff; stroke-width:0px;"/><rect id="ii" x="14.55" y="34.28" width="1.52" height="1.52" style="fill:#fff; stroke-width:0px;"/><rect id="ij" x="17.59" y="34.28" width="1.52" height="1.52" style="fill:#fff; stroke-width:0px;"/><rect id="ik" x="19.1" y="34.28" width="1.52" height="1.52" style="fill:#fff; stroke-width:0px;"/><rect id="il" x="22.14" y="34.28" width="1.52" height="1.52" style="fill:#fff; stroke-width:0px;"/><rect id="im" x="23.66" y="34.28" width="1.52" height="1.52" style="fill:#fff; stroke-width:0px;"/><rect id="in" x="26.69" y="34.28" width="1.52" height="1.52" style="fill:#fff; stroke-width:0px;"/><rect id="io" x="28.21" y="34.28" width="1.52" height="1.52" style="fill:#fff; stroke-width:0px;"/><rect id="ip" x="29.72" y="34.28" width="1.52" height="1.52" style="fill:#fff; stroke-width:0px;"/><rect id="iq" x="40.34" y="34.28" width="1.52" height="1.52" style="fill:#fff; stroke-width:0px;"/><rect id="ir" x="41.86" y="34.28" width="1.52" height="1.52" style="fill:#fff; stroke-width:0px;"/><rect id="is" x="43.38" y="34.28" width="1.52" height="1.52" style="fill:#fff; stroke-width:0px;"/><rect id="it" x="49.45" y="34.28" width="1.52" height="1.52" style="fill:#fff; stroke-width:0px;"/><rect id="iu" x="50.97" y="34.28" width="1.52" height="1.52" style="fill:#fff; stroke-width:0px;"/><rect id="iv" x="11.52" y="35.79" width="1.52" height="1.52" style="fill:#fff; stroke-width:0px;"/><rect id="iw" x="14.55" y="35.79" width="1.52" height="1.52" style="fill:#fff; stroke-width:0px;"/><rect id="ix" x="20.62" y="35.79" width="1.52" height="1.52" style="fill:#fff; stroke-width:0px;"/><rect id="iy" x="22.14" y="35.79" width="1.52" height="1.52" style="fill:#fff; stroke-width:0px;"/><rect id="iz" x="26.69" y="35.79" width="1.52" height="1.52" style="fill:#fff; stroke-width:0px;"/><rect id="ja" x="28.21" y="35.79" width="1.52" height="1.52" style="fill:#fff; stroke-width:0px;"/><rect id="jb" x="29.72" y="35.79" width="1.52" height="1.52" style="fill:#fff; stroke-width:0px;"/><rect id="jc" x="37.31" y="35.79" width="1.52" height="1.52" style="fill:#fff; stroke-width:0px;"/><rect id="jd" x="41.86" y="35.79" width="1.52" height="1.52" style="fill:#fff; stroke-width:0px;"/><rect id="je" x="43.38" y="35.79" width="1.52" height="1.52" style="fill:#fff; stroke-width:0px;"/><rect id="jf" x="50.97" y="35.79" width="1.52" height="1.52" style="fill:#fff; stroke-width:0px;"/><rect id="jg" x="10" y="37.31" width="1.52" height="1.52" style="fill:#fff; stroke-width:0px;"/><rect id="jh" x="13.03" y="37.31" width="1.52" height="1.52" style="fill:#fff; stroke-width:0px;"/><rect id="ji" x="19.1" y="37.31" width="1.52" height="1.52" style="fill:#fff; stroke-width:0px;"/><rect id="jj" x="20.62" y="37.31" width="1.52" height="1.52" style="fill:#fff; stroke-width:0px;"/><rect id="jk" x="23.66" y="37.31" width="1.52" height="1.52" style="fill:#fff; stroke-width:0px;"/><rect id="jl" x="25.17" y="37.31" width="1.52" height="1.52" style="fill:#fff; stroke-width:0px;"/><rect id="jm" x="26.69" y="37.31" width="1.52" height="1.52" style="fill:#fff; stroke-width:0px;"/><rect id="jn" x="28.21" y="37.31" width="1.52" height="1.52" style="fill:#fff; stroke-width:0px;"/><rect id="jo" x="29.72" y="37.31" width="1.52" height="1.52" style="fill:#fff; stroke-width:0px;"/><rect id="jp" x="32.76" y="37.31" width="1.52" height="1.52" style="fill:#fff; stroke-width:0px;"/><rect id="jq" x="34.28" y="37.31" width="1.52" height="1.52" style="fill:#fff; stroke-width:0px;"/><rect id="jr" x="35.79" y="37.31" width="1.52" height="1.52" style="fill:#fff; stroke-width:0px;"/><rect id="js" x="40.34" y="37.31" width="1.52" height="1.52" style="fill:#fff; stroke-width:0px;"/><rect id="jt" x="47.93" y="37.31" width="1.52" height="1.52" style="fill:#fff; stroke-width:0px;"/><rect id="ju" x="49.45" y="37.31" width="1.52" height="1.52" style="fill:#fff; stroke-width:0px;"/><rect id="jv" x="52.48" y="37.31" width="1.52" height="1.52" style="fill:#fff; stroke-width:0px;"/><rect id="jw" x="13.03" y="38.83" width="1.52" height="1.52" style="fill:#fff; stroke-width:0px;"/><rect id="jx" x="17.59" y="38.83" width="1.52" height="1.52" style="fill:#fff; stroke-width:0px;"/><rect id="jy" x="20.62" y="38.83" width="1.52" height="1.52" style="fill:#fff; stroke-width:0px;"/><rect id="jz" x="22.14" y="38.83" width="1.52" height="1.52" style="fill:#fff; stroke-width:0px;"/><rect id="ka" x="25.17" y="38.83" width="1.52" height="1.52" style="fill:#fff; stroke-width:0px;"/><rect id="kb" x="28.21" y="38.83" width="1.52" height="1.52" style="fill:#fff; stroke-width:0px;"/><rect id="kc" x="29.72" y="38.83" width="1.52" height="1.52" style="fill:#fff; stroke-width:0px;"/><rect id="kd" x="31.24" y="38.83" width="1.52" height="1.52" style="fill:#fff; stroke-width:0px;"/><rect id="ke" x="32.76" y="38.83" width="1.52" height="1.52" style="fill:#fff; stroke-width:0px;"/><rect id="kf" x="34.28" y="38.83" width="1.52" height="1.52" style="fill:#fff; stroke-width:0px;"/><rect id="kg" x="38.83" y="38.83" width="1.52" height="1.52" style="fill:#fff; stroke-width:0px;"/><rect id="kh" x="43.38" y="38.83" width="1.52" height="1.52" style="fill:#fff; stroke-width:0px;"/><rect id="ki" x="49.45" y="38.83" width="1.52" height="1.52" style="fill:#fff; stroke-width:0px;"/><rect id="kj" x="52.48" y="38.83" width="1.52" height="1.52" style="fill:#fff; stroke-width:0px;"/><rect id="kk" x="11.52" y="40.34" width="1.52" height="1.52" style="fill:#fff; stroke-width:0px;"/><rect id="kl" x="14.55" y="40.34" width="1.52" height="1.52" style="fill:#fff; stroke-width:0px;"/><rect id="km" x="16.07" y="40.34" width="1.52" height="1.52" style="fill:#fff; stroke-width:0px;"/><rect id="kn" x="19.1" y="40.34" width="1.52" height="1.52" style="fill:#fff; stroke-width:0px;"/><rect id="ko" x="22.14" y="40.34" width="1.52" height="1.52" style="fill:#fff; stroke-width:0px;"/><rect id="kp" x="28.21" y="40.34" width="1.52" height="1.52" style="fill:#fff; stroke-width:0px;"/><rect id="kq" x="31.24" y="40.34" width="1.52" height="1.52" style="fill:#fff; stroke-width:0px;"/><rect id="kr" x="34.28" y="40.34" width="1.52" height="1.52" style="fill:#fff; stroke-width:0px;"/><rect id="ks" x="35.79" y="40.34" width="1.52" height="1.52" style="fill:#fff; stroke-width:0px;"/><rect id="kt" x="37.31" y="40.34" width="1.52" height="1.52" style="fill:#fff; stroke-width:0px;"/><rect id="ku" x="38.83" y="40.34" width="1.52" height="1.52" style="fill:#fff; stroke-width:0px;"/><rect id="kv" x="40.34" y="40.34" width="1.52" height="1.52" style="fill:#fff; stroke-width:0px;"/><rect id="kw" x="41.86" y="40.34" width="1.52" height="1.52" style="fill:#fff; stroke-width:0px;"/><rect id="kx" x="43.38" y="40.34" width="1.52" height="1.52" style="fill:#fff; stroke-width:0px;"/><rect id="ky" x="44.9" y="40.34" width="1.52" height="1.52" style="fill:#fff; stroke-width:0px;"/><rect id="kz" x="46.41" y="40.34" width="1.52" height="1.52" style="fill:#fff; stroke-width:0px;"/><rect id="la" x="49.45" y="40.34" width="1.52" height="1.52" style="fill:#fff; stroke-width:0px;"/><rect id="lb" x="52.48" y="40.34" width="1.52" height="1.52" style="fill:#fff; stroke-width:0px;"/><rect id="lc" x="22.14" y="41.86" width="1.52" height="1.52" style="fill:#fff; stroke-width:0px;"/><rect id="ld" x="23.66" y="41.86" width="1.52" height="1.52" style="fill:#fff; stroke-width:0px;"/><rect id="le" x="25.17" y="41.86" width="1.52" height="1.52" style="fill:#fff; stroke-width:0px;"/><rect id="lf" x="26.69" y="41.86" width="1.52" height="1.52" style="fill:#fff; stroke-width:0px;"/><rect id="lg" x="28.21" y="41.86" width="1.52" height="1.52" style="fill:#fff; stroke-width:0px;"/><rect id="lh" x="31.24" y="41.86" width="1.52" height="1.52" style="fill:#fff; stroke-width:0px;"/><rect id="li" x="34.28" y="41.86" width="1.52" height="1.52" style="fill:#fff; stroke-width:0px;"/><rect id="lj" x="38.83" y="41.86" width="1.52" height="1.52" style="fill:#fff; stroke-width:0px;"/><rect id="lk" x="40.34" y="41.86" width="1.52" height="1.52" style="fill:#fff; stroke-width:0px;"/><rect id="ll" x="46.41" y="41.86" width="1.52" height="1.52" style="fill:#fff; stroke-width:0px;"/><rect id="lm" x="50.97" y="41.86" width="1.52" height="1.52" style="fill:#fff; stroke-width:0px;"/><rect id="ln" x="10" y="43.38" width="1.52" height="1.52" style="fill:#fff; stroke-width:0px;"/><rect id="lo" x="11.52" y="43.38" width="1.52" height="1.52" style="fill:#fff; stroke-width:0px;"/><rect id="lp" x="13.03" y="43.38" width="1.52" height="1.52" style="fill:#fff; stroke-width:0px;"/><rect id="lq" x="14.55" y="43.38" width="1.52" height="1.52" style="fill:#fff; stroke-width:0px;"/><rect id="lr" x="16.07" y="43.38" width="1.52" height="1.52" style="fill:#fff; stroke-width:0px;"/><rect id="ls" x="17.59" y="43.38" width="1.52" height="1.52" style="fill:#fff; stroke-width:0px;"/><rect id="lt" x="19.1" y="43.38" width="1.52" height="1.52" style="fill:#fff; stroke-width:0px;"/><rect id="lu" x="26.69" y="43.38" width="1.52" height="1.52" style="fill:#fff; stroke-width:0px;"/><rect id="lv" x="29.72" y="43.38" width="1.52" height="1.52" style="fill:#fff; stroke-width:0px;"/><rect id="lw" x="32.76" y="43.38" width="1.52" height="1.52" style="fill:#fff; stroke-width:0px;"/><rect id="lx" x="37.31" y="43.38" width="1.52" height="1.52" style="fill:#fff; stroke-width:0px;"/><rect id="ly" x="38.83" y="43.38" width="1.52" height="1.52" style="fill:#fff; stroke-width:0px;"/><rect id="lz" x="40.34" y="43.38" width="1.52" height="1.52" style="fill:#fff; stroke-width:0px;"/><rect id="ma" x="43.38" y="43.38" width="1.52" height="1.52" style="fill:#fff; stroke-width:0px;"/><rect id="mb" x="46.41" y="43.38" width="1.52" height="1.52" style="fill:#fff; stroke-width:0px;"/><rect id="mc" x="47.93" y="43.38" width="1.52" height="1.52" style="fill:#fff; stroke-width:0px;"/><rect id="md" x="50.97" y="43.38" width="1.52" height="1.52" style="fill:#fff; stroke-width:0px;"/><rect id="me" x="10" y="44.9" width="1.52" height="1.52" style="fill:#fff; stroke-width:0px;"/><rect id="mf" x="19.1" y="44.9" width="1.52" height="1.52" style="fill:#fff; stroke-width:0px;"/><rect id="mg" x="23.66" y="44.9" width="1.52" height="1.52" style="fill:#fff; stroke-width:0px;"/><rect id="mh" x="25.17" y="44.9" width="1.52" height="1.52" style="fill:#fff; stroke-width:0px;"/><rect id="mi" x="26.69" y="44.9" width="1.52" height="1.52" style="fill:#fff; stroke-width:0px;"/><rect id="mj" x="28.21" y="44.9" width="1.52" height="1.52" style="fill:#fff; stroke-width:0px;"/><rect id="mk" x="29.72" y="44.9" width="1.52" height="1.52" style="fill:#fff; stroke-width:0px;"/><rect id="ml" x="31.24" y="44.9" width="1.52" height="1.52" style="fill:#fff; stroke-width:0px;"/><rect id="mm" x="32.76" y="44.9" width="1.52" height="1.52" style="fill:#fff; stroke-width:0px;"/><rect id="mn" x="35.79" y="44.9" width="1.52" height="1.52" style="fill:#fff; stroke-width:0px;"/><rect id="mo" x="40.34" y="44.9" width="1.52" height="1.52" style="fill:#fff; stroke-width:0px;"/><rect id="mp" x="46.41" y="44.9" width="1.52" height="1.52" style="fill:#fff; stroke-width:0px;"/><rect id="mq" x="47.93" y="44.9" width="1.52" height="1.52" style="fill:#fff; stroke-width:0px;"/><rect id="mr" x="49.45" y="44.9" width="1.52" height="1.52" style="fill:#fff; stroke-width:0px;"/><rect id="ms" x="10" y="46.41" width="1.52" height="1.52" style="fill:#fff; stroke-width:0px;"/><rect id="mt" x="13.03" y="46.41" width="1.52" height="1.52" style="fill:#fff; stroke-width:0px;"/><rect id="mu" x="14.55" y="46.41" width="1.52" height="1.52" style="fill:#fff; stroke-width:0px;"/><rect id="mv" x="16.07" y="46.41" width="1.52" height="1.52" style="fill:#fff; stroke-width:0px;"/><rect id="mw" x="19.1" y="46.41" width="1.52" height="1.52" style="fill:#fff; stroke-width:0px;"/><rect id="mx" x="25.17" y="46.41" width="1.52" height="1.52" style="fill:#fff; stroke-width:0px;"/><rect id="my" x="32.76" y="46.41" width="1.52" height="1.52" style="fill:#fff; stroke-width:0px;"/><rect id="mz" x="34.28" y="46.41" width="1.52" height="1.52" style="fill:#fff; stroke-width:0px;"/><rect id="na" x="38.83" y="46.41" width="1.52" height="1.52" style="fill:#fff; stroke-width:0px;"/><rect id="nb" x="40.34" y="46.41" width="1.52" height="1.52" style="fill:#fff; stroke-width:0px;"/><rect id="nc" x="41.86" y="46.41" width="1.52" height="1.52" style="fill:#fff; stroke-width:0px;"/><rect id="nd" x="43.38" y="46.41" width="1.52" height="1.52" style="fill:#fff; stroke-width:0px;"/><rect id="ne" x="44.9" y="46.41" width="1.52" height="1.52" style="fill:#fff; stroke-width:0px;"/><rect id="nf" x="46.41" y="46.41" width="1.52" height="1.52" style="fill:#fff; stroke-width:0px;"/><rect id="ng" x="49.45" y="46.41" width="1.52" height="1.52" style="fill:#fff; stroke-width:0px;"/><rect id="nh" x="50.97" y="46.41" width="1.52" height="1.52" style="fill:#fff; stroke-width:0px;"/><rect id="ni" x="52.48" y="46.41" width="1.52" height="1.52" style="fill:#fff; stroke-width:0px;"/><rect id="nj" x="10" y="47.93" width="1.52" height="1.52" style="fill:#fff; stroke-width:0px;"/><rect id="nk" x="13.03" y="47.93" width="1.52" height="1.52" style="fill:#fff; stroke-width:0px;"/><rect id="nl" x="14.55" y="47.93" width="1.52" height="1.52" style="fill:#fff; stroke-width:0px;"/><rect id="nm" x="16.07" y="47.93" width="1.52" height="1.52" style="fill:#fff; stroke-width:0px;"/><rect id="nn" x="19.1" y="47.93" width="1.52" height="1.52" style="fill:#fff; stroke-width:0px;"/><rect id="no" x="22.14" y="47.93" width="1.52" height="1.52" style="fill:#fff; stroke-width:0px;"/><rect id="np" x="25.17" y="47.93" width="1.52" height="1.52" style="fill:#fff; stroke-width:0px;"/><rect id="nq" x="26.69" y="47.93" width="1.52" height="1.52" style="fill:#fff; stroke-width:0px;"/><rect id="nr" x="28.21" y="47.93" width="1.52" height="1.52" style="fill:#fff; stroke-width:0px;"/><rect id="ns" x="35.79" y="47.93" width="1.52" height="1.52" style="fill:#fff; stroke-width:0px;"/><rect id="nt" x="37.31" y="47.93" width="1.52" height="1.52" style="fill:#fff; stroke-width:0px;"/><rect id="nu" x="46.41" y="47.93" width="1.52" height="1.52" style="fill:#fff; stroke-width:0px;"/><rect id="nv" x="49.45" y="47.93" width="1.52" height="1.52" style="fill:#fff; stroke-width:0px;"/><rect id="nw" x="50.97" y="47.93" width="1.52" height="1.52" style="fill:#fff; stroke-width:0px;"/><rect id="nx" x="10" y="49.45" width="1.52" height="1.52" style="fill:#fff; stroke-width:0px;"/><rect id="ny" x="13.03" y="49.45" width="1.52" height="1.52" style="fill:#fff; stroke-width:0px;"/><rect id="nz" x="14.55" y="49.45" width="1.52" height="1.52" style="fill:#fff; stroke-width:0px;"/><rect id="oa" x="16.07" y="49.45" width="1.52" height="1.52" style="fill:#fff; stroke-width:0px;"/><rect id="ob" x="19.1" y="49.45" width="1.52" height="1.52" style="fill:#fff; stroke-width:0px;"/><rect id="oc" x="22.14" y="49.45" width="1.52" height="1.52" style="fill:#fff; stroke-width:0px;"/><rect id="od" x="23.66" y="49.45" width="1.52" height="1.52" style="fill:#fff; stroke-width:0px;"/><rect id="oe" x="25.17" y="49.45" width="1.52" height="1.52" style="fill:#fff; stroke-width:0px;"/><rect id="of" x="26.69" y="49.45" width="1.52" height="1.52" style="fill:#fff; stroke-width:0px;"/><rect id="og" x="31.24" y="49.45" width="1.52" height="1.52" style="fill:#fff; stroke-width:0px;"/><rect id="oh" x="32.76" y="49.45" width="1.52" height="1.52" style="fill:#fff; stroke-width:0px;"/><rect id="oi" x="34.28" y="49.45" width="1.52" height="1.52" style="fill:#fff; stroke-width:0px;"/><rect id="oj" x="35.79" y="49.45" width="1.52" height="1.52" style="fill:#fff; stroke-width:0px;"/><rect id="ok" x="41.86" y="49.45" width="1.52" height="1.52" style="fill:#fff; stroke-width:0px;"/><rect id="ol" x="43.38" y="49.45" width="1.52" height="1.52" style="fill:#fff; stroke-width:0px;"/><rect id="om" x="44.9" y="49.45" width="1.52" height="1.52" style="fill:#fff; stroke-width:0px;"/><rect id="on" x="46.41" y="49.45" width="1.52" height="1.52" style="fill:#fff; stroke-width:0px;"/><rect id="oo" x="47.93" y="49.45" width="1.52" height="1.52" style="fill:#fff; stroke-width:0px;"/><rect id="op" x="49.45" y="49.45" width="1.52" height="1.52" style="fill:#fff; stroke-width:0px;"/><rect id="oq" x="52.48" y="49.45" width="1.52" height="1.52" style="fill:#fff; stroke-width:0px;"/><rect id="or" x="10" y="50.97" width="1.52" height="1.52" style="fill:#fff; stroke-width:0px;"/><rect id="os" x="19.1" y="50.97" width="1.52" height="1.52" style="fill:#fff; stroke-width:0px;"/><rect id="ot" x="22.14" y="50.97" width="1.52" height="1.52" style="fill:#fff; stroke-width:0px;"/><rect id="ou" x="23.66" y="50.97" width="1.52" height="1.52" style="fill:#fff; stroke-width:0px;"/><rect id="ov" x="26.69" y="50.97" width="1.52" height="1.52" style="fill:#fff; stroke-width:0px;"/><rect id="ow" x="28.21" y="50.97" width="1.52" height="1.52" style="fill:#fff; stroke-width:0px;"/><rect id="ox" x="31.24" y="50.97" width="1.52" height="1.52" style="fill:#fff; stroke-width:0px;"/><rect id="oy" x="34.28" y="50.97" width="1.52" height="1.52" style="fill:#fff; stroke-width:0px;"/><rect id="oz" x="35.79" y="50.97" width="1.52" height="1.52" style="fill:#fff; stroke-width:0px;"/><rect id="pa" x="37.31" y="50.97" width="1.52" height="1.52" style="fill:#fff; stroke-width:0px;"/><rect id="pb" x="47.93" y="50.97" width="1.52" height="1.52" style="fill:#fff; stroke-width:0px;"/><rect id="pc" x="49.45" y="50.97" width="1.52" height="1.52" style="fill:#fff; stroke-width:0px;"/><rect id="pd" x="52.48" y="50.97" width="1.52" height="1.52" style="fill:#fff; stroke-width:0px;"/><rect id="pe" x="10" y="52.48" width="1.52" height="1.52" style="fill:#fff; stroke-width:0px;"/><rect id="pf" x="11.52" y="52.48" width="1.52" height="1.52" style="fill:#fff; stroke-width:0px;"/><rect id="pg" x="13.03" y="52.48" width="1.52" height="1.52" style="fill:#fff; stroke-width:0px;"/><rect id="ph" x="14.55" y="52.48" width="1.52" height="1.52" style="fill:#fff; stroke-width:0px;"/><rect id="pi" x="16.07" y="52.48" width="1.52" height="1.52" style="fill:#fff; stroke-width:0px;"/><rect id="pj" x="17.59" y="52.48" width="1.52" height="1.52" style="fill:#fff; stroke-width:0px;"/><rect id="pk" x="19.1" y="52.48" width="1.52" height="1.52" style="fill:#fff; stroke-width:0px;"/><rect id="pl" x="22.14" y="52.48" width="1.52" height="1.52" style="fill:#fff; stroke-width:0px;"/><rect id="pm" x="23.66" y="52.48" width="1.52" height="1.52" style="fill:#fff; stroke-width:0px;"/><rect id="pn" x="25.17" y="52.48" width="1.52" height="1.52" style="fill:#fff; stroke-width:0px;"/><rect id="po" x="26.69" y="52.48" width="1.52" height="1.52" style="fill:#fff; stroke-width:0px;"/><rect id="pp" x="29.72" y="52.48" width="1.52" height="1.52" style="fill:#fff; stroke-width:0px;"/><rect id="pq" x="31.24" y="52.48" width="1.52" height="1.52" style="fill:#fff; stroke-width:0px;"/><rect id="pr" x="34.28" y="52.48" width="1.52" height="1.52" style="fill:#fff; stroke-width:0px;"/><rect id="ps" x="37.31" y="52.48" width="1.52" height="1.52" style="fill:#fff; stroke-width:0px;"/><rect id="pt" x="38.83" y="52.48" width="1.52" height="1.52" style="fill:#fff; stroke-width:0px;"/><rect id="pu" x="40.34" y="52.48" width="1.52" height="1.52" style="fill:#fff; stroke-width:0px;"/><rect id="pv" x="41.86" y="52.48" width="1.52" height="1.52" style="fill:#fff; stroke-width:0px;"/><rect id="pw" x="43.38" y="52.48" width="1.52" height="1.52" style="fill:#fff; stroke-width:0px;"/><rect id="px" x="44.9" y="52.48" width="1.52" height="1.52" style="fill:#fff; stroke-width:0px;"/><rect id="py" x="47.93" y="52.48" width="1.52" height="1.52" style="fill:#fff; stroke-width:0px;"/><rect id="pz" x="50.97" y="52.48" width="1.52" height="1.52" style="fill:#fff; stroke-width:0px;"/></g></svg>