<svg width="147" height="32" viewBox="0 0 147 32" fill="none" xmlns="http://www.w3.org/2000/svg">
<g clip-path="url(#clip0_124_18307)">
<rect y="1.32111" width="29.3578" height="29.3578" rx="9.3945" fill="url(#paint0_linear_124_18307)"/>
<path d="M6.75195 12.4772C6.75195 10.5315 8.32922 8.95422 10.2749 8.95422H11.4492V19.523C11.4492 21.4687 9.87193 23.046 7.92627 23.046H6.75195V12.4772Z" fill="white"/>
<path d="M13.2109 11.89C13.2109 10.2686 14.5253 8.95422 16.1467 8.95422H17.321V17.7616C17.321 19.383 16.0066 20.6973 14.3852 20.6973H13.2109V11.89Z" fill="white"/>
<path d="M19.082 11.3028C19.082 10.0057 20.1335 8.95422 21.4307 8.95422H22.605V16.0001C22.605 17.2972 21.5535 18.3487 20.2563 18.3487H19.082V11.3028Z" fill="white"/>
</g>
<path d="M45.2619 17.269H40.0715V22.9747H37.6289V9.02536H46.2542V11.2771H40.0715V15.0745H45.2619V17.269Z" fill="#1B2533"/>
<path d="M49.6964 22.9747H47.3874V8.77728H49.6964V22.9747Z" fill="#1B2533"/>
<path d="M57.7679 13.5479H60.0959V22.9747H57.9396L57.7679 21.7153C57.1954 22.6121 55.9741 23.2228 54.7147 23.2228C52.5393 23.2228 51.2607 21.7534 51.2607 19.4444V13.5479H53.5888V18.6239C53.5888 20.4177 54.2948 21.1428 55.5925 21.1428C57.0618 21.1428 57.7679 20.2841 57.7679 18.4903V13.5479Z" fill="#1B2533"/>
<path d="M65.7681 23.2228C62.963 23.2228 60.9974 21.181 60.9974 18.2613C60.9974 15.3035 62.9248 13.2617 65.6918 13.2617C68.516 13.2617 70.3097 15.1509 70.3097 18.0896V18.7956L63.211 18.8147C63.3828 20.4749 64.2606 21.3145 65.8063 21.3145C67.0848 21.3145 67.9244 20.8184 68.1916 19.9215H70.3479C69.9472 21.9824 68.2297 23.2228 65.7681 23.2228ZM65.7108 15.1699C64.3369 15.1699 63.4973 15.9142 63.2683 17.3263H68.0008C68.0008 16.0287 67.1039 15.1699 65.7108 15.1699Z" fill="#1B2533"/>
<path d="M73.7377 22.9747H71.4097V13.5479H73.566L73.7568 14.7692C74.3484 13.8151 75.4933 13.2617 76.7719 13.2617C79.1381 13.2617 80.3594 14.731 80.3594 17.1736V22.9747H78.0313V17.727C78.0313 16.1432 77.2489 15.3799 76.0467 15.3799C74.6155 15.3799 73.7377 16.3721 73.7377 17.8988V22.9747Z" fill="#1B2533"/>
<path d="M85.0893 22.9747H82.7613V15.4943H80.9484V13.5479H82.7613V10.6092H85.0893V13.5479H86.9213V15.4943H85.0893V22.9747Z" fill="#1B2533"/>
<path d="M91.4682 22.9747V9.31159H96.4678C99.1012 9.31159 100.723 10.6474 100.723 12.8419C100.723 14.4448 100.017 15.5325 98.605 16.0859C100.189 16.6011 100.99 17.7079 100.99 19.3872C100.99 21.5817 99.3493 22.9747 96.754 22.9747H91.4682ZM96.4487 10.5329H92.8421V15.5325H96.6205C98.3379 15.5325 99.3111 14.5784 99.3111 12.9564C99.3111 11.4298 98.2806 10.5329 96.4487 10.5329ZM96.754 16.7347H92.8421V21.7343H96.754C98.5478 21.7343 99.5973 20.7993 99.5973 19.2154C99.5973 17.6698 98.5287 16.7347 96.754 16.7347Z" fill="#242F3E"/>
<path d="M102.153 18.3567C102.153 15.5325 104.137 13.4907 106.847 13.4907C109.557 13.4907 111.541 15.5325 111.541 18.3567C111.541 21.1619 109.557 23.2037 106.847 23.2037C104.137 23.2037 102.153 21.1619 102.153 18.3567ZM103.488 18.3377C103.488 20.5131 104.862 22.0206 106.847 22.0206C108.812 22.0206 110.205 20.5131 110.205 18.3377C110.205 16.2004 108.812 14.6738 106.847 14.6738C104.862 14.6738 103.488 16.2004 103.488 18.3377Z" fill="#242F3E"/>
<path d="M115.918 23.2037C113.953 23.2037 112.788 22.0969 112.788 20.4749C112.788 18.7765 114.086 17.7079 116.242 17.5362L119.296 17.2881V16.9828C119.296 15.1699 118.208 14.5975 116.853 14.5975C115.25 14.5975 114.296 15.3226 114.296 16.563H113.094C113.094 14.6929 114.62 13.4907 116.891 13.4907C119.028 13.4907 120.593 14.5593 120.593 17.0019V22.9747H119.486L119.315 21.3527C118.742 22.5167 117.483 23.2037 115.918 23.2037ZM116.223 22.1351C118.17 22.1351 119.296 20.7802 119.296 18.7765V18.2804L116.567 18.4903C114.83 18.643 114.124 19.4063 114.124 20.4367C114.124 21.5626 114.964 22.1351 116.223 22.1351Z" fill="#242F3E"/>
<path d="M127.682 13.6243V14.8074H126.957C125.258 14.8074 124.17 15.9523 124.17 17.7079V22.9747H122.854V13.7388H124.094L124.19 15.1699C124.552 14.1776 125.525 13.5288 126.823 13.5288C127.109 13.5288 127.357 13.5479 127.682 13.6243Z" fill="#242F3E"/>
<path d="M132.322 23.2037C129.631 23.2037 128.048 21.1428 128.048 18.3758C128.048 15.5898 129.631 13.4907 132.379 13.4907C133.906 13.4907 135.127 14.1586 135.776 15.4943V9.06352H137.093V22.9747H135.948L135.814 21.0855C135.165 22.5167 133.868 23.2037 132.322 23.2037ZM132.551 22.0015C134.574 22.0015 135.757 20.4749 135.757 18.3377C135.757 16.2195 134.574 14.6738 132.551 14.6738C130.547 14.6738 129.383 16.2195 129.383 18.3377C129.383 20.4749 130.547 22.0015 132.551 22.0015Z" fill="#242F3E"/>
<path d="M138.676 20.3795H139.936C139.936 21.4481 140.737 22.116 142.035 22.116C143.466 22.116 144.306 21.5054 144.306 20.5131C144.306 19.7498 143.924 19.3109 142.836 19.0437L141.252 18.643C139.649 18.2422 138.867 17.4026 138.867 16.1432C138.867 14.5211 140.222 13.4907 142.206 13.4907C144.153 13.4907 145.412 14.5593 145.47 16.2767H144.191C144.153 15.2081 143.409 14.5784 142.168 14.5784C140.871 14.5784 140.146 15.1318 140.146 16.1241C140.146 16.8301 140.642 17.3263 141.653 17.5743L143.237 17.9751C144.84 18.3758 145.565 19.12 145.565 20.4558C145.565 22.116 144.153 23.2037 142.054 23.2037C139.974 23.2037 138.676 22.0969 138.676 20.3795Z" fill="#242F3E"/>
<defs>
<linearGradient id="paint0_linear_124_18307" x1="14.6789" y1="-16" x2="14.6789" y2="30.6789" gradientUnits="userSpaceOnUse">
<stop stop-color="#A5B4FC"/>
<stop offset="1" stop-color="#4338CA"/>
</linearGradient>
<clipPath id="clip0_124_18307">
<rect y="1.32111" width="29.3578" height="29.3578" rx="9.3945" fill="white"/>
</clipPath>
</defs>
</svg>
