<svg xmlns="http://www.w3.org/2000/svg" xmlns:xlink="http://www.w3.org/1999/xlink" x="0px" y="0px" viewBox="0 0 256 256"  xml:space="preserve">
    <g><g><path fill="#000000" d="M51.6,47.8H160c11.5,0,21.9,4.7,29.4,12.2c7.5,7.5,12.2,18,12.2,29.4v4.7h-14.7v-4.7c0-7.4-3-14.1-7.9-19c-4.9-4.9-11.6-7.9-19-7.9H51.6c-7.2,0-13.8,2.9-18.7,7.6c-0.1,0.1-0.2,0.2-0.3,0.4l0,0c-4.9,4.9-7.9,11.6-7.9,19v77.1c0,7.2,2.9,13.8,7.6,18.7c0.1,0.1,0.2,0.2,0.4,0.3l0,0l0,0c4.9,4.9,11.6,7.9,19,7.9H160c7.4,0,14.1-3,19-7.9l0,0l0,0l0,0c4.9-4.9,7.9-11.6,7.9-19v-4.7h14.7v4.7c0,11.4-4.7,21.8-12.2,29.4l-5.2-5.2l5.2,5.2l-0.1,0.1c-7.5,7.5-17.9,12.1-29.3,12.1H51.6c-11.4,0-21.8-4.7-29.4-12.2l5.2-5.2l-5.2,5.2c-0.1-0.1-0.3-0.3-0.4-0.5c-7.3-7.5-11.8-17.8-11.8-29V89.4c0-11.5,4.7-21.9,12.2-29.4l0,0c0.1-0.1,0.3-0.3,0.5-0.4C30.2,52.3,40.4,47.8,51.6,47.8L51.6,47.8L51.6,47.8z M58.7,89.8c-4.1,0-7.4,3.3-7.4,7.4c0,4.1,3.3,7.4,7.4,7.4h87.7c4.1,0,7.4-3.3,7.4-7.4c0-4.1-3.3-7.4-7.4-7.4H58.7L58.7,89.8L58.7,89.8z M57.9,121c-4.1,0-7.4,3.3-7.4,7.4s3.3,7.4,7.4,7.4h62.4c4.1,0,7.4-3.3,7.4-7.4s-3.3-7.4-7.4-7.4H57.9L57.9,121L57.9,121z M58.3,152.6c-4.1,0-7.4,3.3-7.4,7.4c0,4.1,3.3,7.4,7.4,7.4h36.2c4.1,0,7.4-3.3,7.4-7.4c0-4.1-3.3-7.4-7.4-7.4H58.3L58.3,152.6L58.3,152.6z M159,130.7l73.3-52.6L246,97.2l-73.3,52.6L159,130.7L159,130.7z M155.3,133.4l13.6,19.1l-27.5,5.4L155.3,133.4L155.3,133.4z"/></g></g>
</svg>
