<svg xmlns="http://www.w3.org/2000/svg" width="16" height="16" viewBox="0 0 16 16" fill="none">
    <path d="M9.5 1L9.92326 2.87909C10.2823 4.47298 11.527 5.71767 13.1209 6.07671L15 6.5L13.1209 6.92329C11.527 7.28233 10.2823 8.52699 9.92326 10.1209L9.5 12L9.07674 10.1209C8.71766 8.52699 7.47301 7.28233 5.87911 6.92329L4 6.5L5.87911 6.07671C7.47294 5.71767 8.71766 4.47298 9.07674 2.8791L9.5 1Z" fill="white"/>
    <path d="M4 9L4.23089 10.025C4.42673 10.8943 5.10565 11.5733 5.97502 11.7691L7 12L5.97502 12.2309C5.10565 12.4267 4.42673 13.1056 4.23089 13.975L4 15L3.76911 13.975C3.57327 13.1056 2.89435 12.4267 2.02496 12.2309L1 12L2.02496 11.7691C2.89435 11.5733 3.57327 10.8944 3.76911 10.025L4 9Z" fill="white"/>
</svg>
