<svg xmlns="http://www.w3.org/2000/svg" width="20" height="20" viewBox="0 0 20 20" fill="none">
    <path d="M11.6048 10.6479L9.81458 8.85767C9.57058 8.61367 9.44858 8.49167 9.31692 8.42642C9.0665 8.30232 8.7725 8.30232 8.522 8.42642C8.39042 8.49167 8.26839 8.61367 8.02436 8.85767C7.78032 9.10176 7.6583 9.22376 7.59307 9.35534C7.46898 9.60584 7.46898 9.89984 7.59307 10.1503C7.6583 10.2819 7.78032 10.4039 8.02436 10.6479L9.81458 12.4382M11.6048 10.6479L16.9757 16.0188C17.2197 16.2628 17.3417 16.3848 17.4069 16.5164C17.531 16.7668 17.531 17.0608 17.4069 17.3113C17.3417 17.4429 17.2197 17.5649 16.9757 17.809C16.7316 18.053 16.6096 18.175 16.478 18.2403C16.2275 18.3643 15.9335 18.3643 15.6831 18.2403C15.5514 18.175 15.4294 18.053 15.1854 17.809L9.81458 12.4382M11.6048 10.6479L9.81458 12.4382" stroke="#525866" stroke-width="1.25" stroke-linecap="round" stroke-linejoin="round"/>
    <path d="M14.1673 1.66666L14.413 2.33049C14.7351 3.20096 14.8962 3.6362 15.2137 3.9537C15.5312 4.2712 15.9663 4.43225 16.8368 4.75435L17.5007 4.99999L16.8368 5.24563C15.9663 5.56773 15.5312 5.72879 15.2137 6.04628C14.8962 6.36378 14.7351 6.79901 14.413 7.66949L14.1673 8.33332L13.9217 7.66949C13.5996 6.79902 13.4385 6.36378 13.121 6.04628C12.8035 5.72878 12.3683 5.56773 11.4978 5.24563L10.834 4.99999L11.4978 4.75435C12.3683 4.43225 12.8035 4.2712 13.121 3.9537C13.4385 3.6362 13.5996 3.20096 13.9217 2.33049L14.1673 1.66666Z" stroke="#525866" stroke-width="1.25" stroke-linejoin="round"/>
    <path d="M5 3.33334L5.18423 3.83122C5.42581 4.48407 5.5466 4.8105 5.78472 5.04863C6.02284 5.28674 6.34927 5.40754 7.00212 5.64911L7.5 5.83334L7.00212 6.01758C6.34927 6.25915 6.02284 6.37994 5.78472 6.61807C5.5466 6.85619 5.42581 7.18262 5.18423 7.83547L5 8.33334L4.81577 7.83547C4.57419 7.18262 4.4534 6.85619 4.21528 6.61807C3.97716 6.37994 3.65073 6.25915 2.99788 6.01758L2.5 5.83334L2.99788 5.64911C3.65073 5.40754 3.97716 5.28674 4.21528 5.04862C4.4534 4.8105 4.57419 4.48407 4.81577 3.83122L5 3.33334Z" stroke="#525866" stroke-width="1.25" stroke-linejoin="round"/>
</svg>
