<svg viewBox="0 0 23 22" fill="none" xmlns="http://www.w3.org/2000/svg">
<path d="M11.5033 15.4592C7.27649 15.4592 3.8418 11.9936 3.8418 7.72961C3.8418 3.46564 7.27649 0 11.5033 0C15.7302 0 19.1649 3.47183 19.1649 7.72961C19.1649 11.9874 15.7302 15.4592 11.5033 15.4592ZM11.5033 2.53734C8.6875 2.53734 6.39771 4.86427 6.39771 7.72343C6.39771 10.5826 8.6875 12.9095 11.5033 12.9095C14.3192 12.9095 16.609 10.5826 16.609 7.72343C16.609 4.86427 14.3192 2.53734 11.5033 2.53734Z" fill="#121116"/>
<path d="M21.7212 19.1103C21.2879 19.1103 20.8671 18.8937 20.6258 18.4976L16.4422 11.5973C16.0771 10.997 16.2751 10.2172 16.8754 9.85212C17.4757 9.48699 18.2679 9.67883 18.633 10.2853L22.8165 17.1857C23.1817 17.786 22.9836 18.5719 22.3833 18.9309C22.1791 19.0546 21.9501 19.1103 21.7212 19.1103Z" fill="#121116"/>
<path d="M21.7213 19.1109C21.6161 19.1109 21.5109 19.0985 21.4057 19.0738L17.2221 18.0093C16.5352 17.8361 16.1267 17.1429 16.3 16.4622C16.4733 15.7814 17.1726 15.3668 17.8534 15.5463L22.0369 16.6045C22.7177 16.7778 23.1323 17.4709 22.959 18.1517C22.8167 18.7334 22.2906 19.1109 21.7213 19.1109Z" fill="#121116"/>
<path d="M16.4238 21.5986C16.2938 21.5986 16.17 21.58 16.0401 21.5429C15.3655 21.3325 14.988 20.6208 15.1984 19.9462L16.3124 16.3939C16.5228 15.7255 17.2345 15.3542 17.9152 15.5585C18.5898 15.7689 18.9673 16.4806 18.7569 17.1551L17.6429 20.7074C17.4758 21.2458 16.9684 21.5986 16.4238 21.5986Z" fill="#121116"/>
<path d="M16.424 21.5983C15.9784 21.5983 15.5514 21.3693 15.3101 20.9547L11.9001 15.0136C11.5536 14.4009 11.764 13.6273 12.3766 13.2808C12.9893 12.928 13.7691 13.1446 14.1218 13.7511L17.5256 19.6922C17.8783 20.3049 17.6617 21.0785 17.0491 21.425C16.8572 21.5426 16.6406 21.5983 16.424 21.5983Z" fill="#121116"/>
<path d="M1.28027 19.1104C1.05748 19.1104 0.828498 19.0548 0.618084 18.9248C0.011597 18.5597 -0.180251 17.7799 0.184879 17.1796L4.3684 10.2793C4.73353 9.67896 5.51949 9.48092 6.12598 9.84605C6.73246 10.2112 6.92431 10.9909 6.55918 11.5912L2.37566 18.4916C2.14049 18.8938 1.71347 19.1104 1.28027 19.1104Z" fill="#121116"/>
<path d="M1.28629 19.1108C0.716939 19.1108 0.197094 18.7271 0.0485661 18.1515C-0.124716 17.4708 0.283735 16.7776 0.970674 16.6044L5.1542 15.5399C5.84114 15.3666 6.53426 15.7813 6.70755 16.4558C6.88083 17.1366 6.47238 17.8297 5.78544 18.003L1.60192 19.0674C1.49671 19.0984 1.38531 19.1108 1.28629 19.1108Z" fill="#121116"/>
<path d="M6.58328 21.5986C6.03868 21.5986 5.53121 21.252 5.36412 20.7074L4.25016 17.1551C4.03975 16.4868 4.41726 15.7689 5.09182 15.5585C5.76638 15.3542 6.48426 15.7255 6.69468 16.3939L7.80863 19.9462C8.01905 20.6146 7.64154 21.3325 6.96698 21.5429C6.83701 21.58 6.70705 21.5986 6.58328 21.5986Z" fill="#121116"/>
<path d="M6.57722 21.5981C6.36062 21.5981 6.14402 21.5424 5.94598 21.431C5.3333 21.0844 5.12289 20.3047 5.46945 19.6982L8.8794 13.7633C9.23215 13.1568 10.0119 12.9402 10.6246 13.2867C11.2373 13.6333 11.4477 14.4131 11.1011 15.0196L7.69118 20.9545C7.45601 21.3691 7.0228 21.5981 6.57722 21.5981Z" fill="#121116"/>
</svg>
